<svg width="30" height="30" viewBox="0 0 30 30" fill="none" xmlns="http://www.w3.org/2000/svg">
<path fill-rule="evenodd" clip-rule="evenodd" d="M15 27C21.6274 27 27 21.6274 27 15C27 8.37258 21.6274 3 15 3C8.37258 3 3 8.37258 3 15C3 21.6274 8.37258 27 15 27ZM20.5607 13.9393L16.0607 9.43934C15.4749 8.85355 14.5251 8.85355 13.9393 9.43934C13.3536 10.0251 13.3536 10.9749 13.9393 11.5607L15.8787 13.5L10.5 13.5C9.67157 13.5 9 14.1716 9 15C9 15.8284 9.67157 16.5 10.5 16.5H15.8787L13.9393 18.4393C13.3536 19.0251 13.3536 19.9749 13.9393 20.5607C14.5251 21.1464 15.4749 21.1464 16.0607 20.5607L20.5607 16.0607C21.1464 15.4749 21.1464 14.5251 20.5607 13.9393Z" fill="url(#paint0_linear_195_917)"/>
<defs>
<linearGradient id="paint0_linear_195_917" x1="3" y1="15" x2="27" y2="15" gradientUnits="userSpaceOnUse">
<stop stop-color="#9867FF"/>
<stop offset="1" stop-color="#6C64F8"/>
</linearGradient>
</defs>
</svg>
