<svg width="390" height="150" viewBox="0 0 390 150" fill="none" xmlns="http://www.w3.org/2000/svg">
<rect width="390" height="150" fill="#F5F5F5"/>
<rect width="1701" height="2160" transform="translate(-896 -585)" fill="white"/>
<g clip-path="url(#clip0_0_1)">
<rect width="390" height="150" fill="#6990DD"/>
<path d="M197.109 35.625C197.109 36.5625 197.391 37.6641 198.203 38.4688C199 37.6719 199.281 36.5703 199.281 35.625V35.4062H198.5V33.8438H202.609V35.4062H201.172V35.625C201.172 36.8906 201.75 38.25 203.266 38.9375L202.375 40.375C201.305 39.9062 200.633 39.1094 200.25 38.1719C199.891 39.1484 199.258 40.0156 198.188 40.5156C197.164 40.0156 196.547 39.1641 196.203 38.2031C195.797 39.1328 195.133 39.9141 194.094 40.375L193.172 38.9375C194.656 38.25 195.266 36.8438 195.266 35.625V35.4062H193.703V33.8438H197.938V35.4062H197.109V35.625ZM205.625 33.2188V40.6719H203.625V33.2188H205.625ZM205.625 41.1875V44.9219H197.688V45.8125H206.016V47.3438H195.703V43.5H203.641V42.6875H195.656V41.1875H205.625ZM219.034 33.2188V47.4688H217.05V39.9688H214.753V38.3438H217.05V33.2188H219.034ZM213.956 34.4062V39.7344H209.534V42.5156C211.495 42.5 213.159 42.4297 214.988 42.1094L215.144 43.7344C213.034 44.0781 211.097 44.1562 208.722 44.1562H207.55V38.1562H212.019V36.0156H207.519V34.4062H213.956ZM233.694 44.1562V45.7812H220.678V44.1562H226.163V41.5312H222.053V34.125H224.053V36.3281H230.256V34.125H232.241V41.5312H228.147V44.1562H233.694ZM224.053 39.9375H230.256V37.9219H224.053V39.9375ZM246.259 33.2188V47.4375H244.244V33.2188H246.259ZM241.994 34.7031C241.994 39.0156 240.478 42.5938 235.4 45L234.353 43.4062C238.025 41.6719 239.642 39.4219 239.963 36.2656H235.119V34.7031H241.994ZM260.794 44.5156V45.5469H248.075V44.5156H253.794V41.8906H249.669V37.6094H257.981V35.4219H249.638V34.4062H259.184V38.6094H250.888V40.875H259.513V41.8906H254.997V44.5156H260.794ZM272.597 34.7031V35.7344H267.456V42.8125C269.956 42.8125 271.613 42.7266 273.534 42.3594L273.691 43.375C271.644 43.7656 269.956 43.8594 267.284 43.8594H266.222V34.7031H272.597ZM277.05 33.375V47.2969H275.816V39.4531H271.769V38.4375H275.816V33.375H277.05ZM294.213 36.9688V37.9531H289.9V39.7188H295.619V40.7344H282.963V39.7188H288.681V37.9531H284.697V33.6875H285.916V36.9688H294.213ZM294.228 42.125V43.1094H292.072V46.0781H294.338V47.0781H284.259V46.0781H286.525V43.1094H284.384V42.125H294.228ZM287.744 46.0781H290.869V43.1094H287.744V46.0781ZM309.247 40.7031V41.7031H296.591V40.7031H309.247ZM307.841 45.9375V46.9688H298.231V42.9219H299.466V45.9375H307.841ZM302.919 33.875C305.903 33.8594 307.825 34.8906 307.825 36.625C307.825 38.3594 305.903 39.3906 302.919 39.3906C299.903 39.3906 297.997 38.3594 297.997 36.625C297.997 34.8906 299.903 33.8594 302.919 33.875ZM302.919 34.8594C300.684 34.8594 299.247 35.5312 299.262 36.625C299.247 37.7188 300.684 38.3906 302.919 38.3906C305.137 38.3906 306.575 37.7188 306.575 36.625C306.575 35.5312 305.137 34.8594 302.919 34.8594ZM204.312 62.375V68.0312H206.562V69.0625H204.312V76.2656H203.094V62.375H204.312ZM200.719 63.875C200.719 67.8125 198.875 71.3906 194.344 73.625L193.656 72.6562C197.25 70.8672 199.203 68.1953 199.484 64.9062H194.297V63.875H200.719ZM218.644 62.375V76.2656H217.409V62.375H218.644ZM212.316 66.9062C212.316 69.2344 213.941 71.4844 216.034 72.375L215.347 73.3281C213.745 72.6172 212.386 71.1094 211.738 69.2656C211.113 71.2188 209.761 72.8203 208.159 73.5781L207.472 72.625C209.534 71.6875 211.113 69.3438 211.113 66.9062V65.7969H207.847V64.7969H211.097V62.6406H212.316V64.7969H215.55V65.7969H212.316V66.9062ZM225.366 63.3906C227.553 63.3906 229.1 64.7188 229.1 66.6562C229.1 68.5938 227.553 69.9219 225.366 69.9219C223.178 69.9219 221.6 68.5938 221.616 66.6562C221.6 64.7188 223.178 63.3906 225.366 63.3906ZM225.366 64.4688C223.881 64.4688 222.803 65.3594 222.819 66.6562C222.803 67.9531 223.881 68.8438 225.366 68.8438C226.834 68.8438 227.897 67.9531 227.897 66.6562C227.897 65.3594 226.834 64.4688 225.366 64.4688ZM232.209 62.375V76.2969H230.991V62.375H232.209ZM220.897 72.1875C223.459 72.1875 226.991 72.1719 230.069 71.7188L230.163 72.625C226.991 73.2188 223.569 73.2344 221.069 73.2344L220.897 72.1875ZM250.919 68.25V69.25H245.184V70.625H249.294V73.7344H241.044V75.1406H249.716V76.1094H239.825V72.8125H248.091V71.5781H239.794V70.625H243.966V69.25H238.263V68.25H250.919ZM249.278 62.8438V67.0781H239.903V62.8438H249.278ZM241.122 63.8281V66.0938H248.059V63.8281H241.122ZM263.406 62.3906V72.6562H262.172V67.7031H259.094V66.6719H262.172V62.3906H263.406ZM259.156 63.4531C259.141 67.0156 256.594 69.7344 252.641 71.0312L252.109 70.0469C255.312 68.9922 257.539 67 257.812 64.4844H252.812V63.4531H259.156ZM263.766 74.9375V75.9688H254.562V71.6094H255.812V74.9375H263.766ZM273.222 63.9219V64.6406C273.206 65.7344 273.206 67.5781 272.816 70.1562L271.581 70.0469C271.956 67.7188 271.988 66.0312 271.988 64.9219H266.159V63.9219H273.222ZM269.581 67.8906V72.1094C271.12 72.0547 272.698 71.9531 274.144 71.7812L274.206 72.7031C271.284 73.1562 268.019 73.2188 265.534 73.2031L265.378 72.1875C266.292 72.1797 267.308 72.1719 268.378 72.1406V67.8906H269.581ZM276.238 62.375V68.1875H278.488V69.25H276.238V76.2656H275.019V62.375H276.238ZM294.119 63.7812V65.3281C294.119 67.1094 294.119 68.9062 293.619 71.4844L292.416 71.3438C292.916 68.8906 292.916 67.0625 292.916 65.3281V64.7969H284.291V63.7812H294.119ZM295.619 73.2812V74.2969H282.963V73.2812H286.103V68.7031H287.322V73.2812H289.572V68.7031H290.775V73.2812H295.619ZM307.434 62.375V67.25H309.512V68.2812H307.434V73.25H306.2V62.375H307.434ZM307.934 74.9375V75.9688H298.606V72.5156H299.841V74.9375H307.934ZM296.528 70.6406C297.63 70.6406 298.934 70.6328 300.294 70.5781V69.5156C298.677 69.3672 297.637 68.5938 297.637 67.4219C297.637 66.0781 298.934 65.2812 300.887 65.2812C302.856 65.2812 304.137 66.0781 304.153 67.4219C304.137 68.5859 303.122 69.3594 301.512 69.5156V70.5156C302.817 70.4531 304.13 70.3281 305.341 70.1406L305.45 71.0156C302.466 71.5781 299.106 71.625 296.669 71.6406L296.528 70.6406ZM304.919 63.75V64.6719H296.872V63.75H300.294V62.3438H301.512V63.75H304.919ZM300.887 66.1562C299.606 66.1562 298.809 66.6406 298.809 67.4219C298.809 68.1875 299.606 68.6719 300.887 68.6719C302.169 68.6719 302.981 68.1875 302.981 67.4219C302.981 66.6406 302.169 66.1562 300.887 66.1562ZM320.969 62.375V68.1094H323.297V69.125H320.969V76.2656H319.75V62.375H320.969ZM318.406 64.6094V65.625H310.141V64.6094H313.719V62.5469H314.938V64.6094H318.406ZM314.344 66.7812C316.312 66.7812 317.734 68.0938 317.75 69.9688C317.734 71.8438 316.312 73.1562 314.344 73.1562C312.359 73.1562 310.922 71.8438 310.938 69.9688C310.922 68.0938 312.359 66.7812 314.344 66.7812ZM314.344 67.8125C313.047 67.8125 312.094 68.7188 312.109 69.9688C312.094 71.2344 313.047 72.125 314.344 72.1094C315.625 72.125 316.562 71.2344 316.578 69.9688C316.562 68.7188 315.625 67.8125 314.344 67.8125ZM335.081 66.5938V67.5781H325.566V62.8906H326.784V66.5938H335.081ZM336.55 69.4688V70.4688H323.831V69.4688H336.55ZM335.159 74.9062V75.9219H325.488V71.8906H326.706V74.9062H335.159ZM205.047 91.375V105.266H203.812V91.375H205.047ZM200.938 92.8906C200.922 96.8906 199.062 100.422 194.406 102.656L193.734 101.656C197.492 99.875 199.406 97.2109 199.688 93.8906H194.375V92.8906H200.938ZM218.581 91.375V105.266H217.363V91.375H218.581ZM207.269 101.562C208.456 101.555 209.816 101.547 211.222 101.5V99.9844C209.558 99.8047 208.472 98.8594 208.488 97.4688C208.472 95.9062 209.816 94.8906 211.816 94.8906C213.816 94.8906 215.175 95.9062 215.175 97.4688C215.175 98.8438 214.097 99.7891 212.456 99.9688V101.453C213.8 101.398 215.159 101.297 216.441 101.125L216.534 102.062C213.441 102.562 210.034 102.609 207.456 102.609L207.269 101.562ZM216.081 93.0938V94.0938H207.566V93.0938H211.222V91.3906H212.456V93.0938H216.081ZM211.816 95.8438C210.534 95.8438 209.628 96.5 209.628 97.4688C209.628 98.4375 210.534 99.0625 211.816 99.0469C213.113 99.0625 214.003 98.4375 214.003 97.4688C214.003 96.5 213.113 95.8438 211.816 95.8438ZM233.522 97.8281V98.7969H220.803V97.8281H233.522ZM231.928 99.9062V102.859H223.584V104.188H232.381V105.078H222.35V102.016H230.709V100.828H222.334V99.9062H231.928ZM231.881 91.7969V94.6719H223.678V95.8906H232.131V96.7812H222.459V93.8281H230.647V92.6875H222.413V91.7969H231.881ZM249.778 91.3906V99.7344H248.544V97.8594H244.856V96.8438H248.544V94.9688H244.997C244.083 97.2031 241.934 98.8203 238.966 99.7031L238.45 98.7344C241.809 97.7344 243.895 95.8594 244.153 93.4531H239.153V92.4219H245.481C245.481 92.9688 245.419 93.4922 245.309 93.9844H248.544V91.3906H249.778ZM245.231 99.875C248.044 99.875 249.856 100.875 249.856 102.531C249.856 104.203 248.044 105.203 245.231 105.203C242.388 105.203 240.591 104.203 240.591 102.531C240.591 100.875 242.388 99.875 245.231 99.875ZM245.231 100.859C243.138 100.844 241.794 101.484 241.794 102.531C241.794 103.578 243.138 104.203 245.231 104.203C247.294 104.203 248.622 103.578 248.638 102.531C248.622 101.484 247.294 100.844 245.231 100.859ZM263.406 91.375V99.7969H262.172V96.625H259.812V95.6094H262.172V91.375H263.406ZM263.406 100.547V105.078H254.328V100.547H263.406ZM255.547 101.531V104.078H262.203V101.531H255.547ZM260.016 92.8438V93.8438H251.906V92.8438H255.359V91.25H256.562V92.8438H260.016ZM255.953 94.5625C257.844 94.5625 259.172 95.5781 259.188 97.0312C259.172 98.5312 257.844 99.5156 255.953 99.5156C254.062 99.5156 252.734 98.5312 252.734 97.0312C252.734 95.5781 254.062 94.5625 255.953 94.5625ZM255.953 95.5156C254.75 95.5156 253.906 96.1406 253.906 97.0312C253.906 97.9531 254.75 98.5625 255.953 98.5781C257.156 98.5625 258 97.9531 258 97.0312C258 96.1406 257.156 95.5156 255.953 95.5156ZM272.456 93.7812V94.7812H265.488V93.7812H268.378V91.7969H269.597V93.7812H272.456ZM268.972 95.7188C270.722 95.7188 271.972 97.0312 271.988 98.875C271.972 100.734 270.722 102.062 268.972 102.062C267.238 102.062 265.988 100.734 265.988 98.875C265.988 97.0312 267.238 95.7188 268.972 95.7188ZM268.972 96.75C267.878 96.7656 267.081 97.6562 267.081 98.875C267.081 100.109 267.878 101 268.972 100.984C270.081 101 270.894 100.109 270.894 98.875C270.894 97.6562 270.081 96.7656 268.972 96.75ZM277.347 91.375V105.266H276.175V98.25H274.331V104.578H273.175V91.7188H274.331V97.2344H276.175V91.375H277.347ZM291.866 102.469V103.484H279.147V102.469H284.866V99.4688H280.647V92.3594H281.881V94.875H289.1V92.3594H290.303V99.4688H286.069V102.469H291.866ZM281.881 98.4688H289.1V95.875H281.881V98.4688ZM296.9 95.3281C296.9 97.5312 297.978 99.9219 299.822 101.016L299.119 101.969C297.783 101.156 296.822 99.6719 296.338 97.9844C295.822 99.8281 294.791 101.414 293.4 102.266L292.619 101.344C294.541 100.219 295.713 97.75 295.713 95.375V92.6875H296.9V95.3281ZM304.681 91.375V105.266H303.494V91.375H304.681ZM301.806 91.6719V104.562H300.65V97.4062H298.291V96.3594H300.65V91.6719H301.806ZM319.122 102.453V103.484H306.403V102.453H309.559V98.7031C308.372 98.0859 307.653 97.0859 307.653 95.8281C307.653 93.6719 309.762 92.2656 312.731 92.25C315.7 92.2656 317.809 93.6719 317.809 95.8281C317.809 97.0625 317.114 98.0547 315.966 98.6719V102.453H319.122ZM312.731 93.2656C310.45 93.25 308.841 94.2812 308.841 95.8281C308.841 97.375 310.45 98.4219 312.731 98.4219C314.997 98.4219 316.622 97.375 316.622 95.8281C316.622 94.2812 314.997 93.25 312.731 93.2656ZM310.762 102.453H314.731V99.1406C314.13 99.3047 313.458 99.3906 312.731 99.3906C312.02 99.3906 311.356 99.3125 310.762 99.1562V102.453ZM321.5 104.094C320.953 104.094 320.484 103.641 320.5 103.078C320.484 102.531 320.953 102.078 321.5 102.078C322.047 102.078 322.5 102.531 322.5 103.078C322.5 103.641 322.047 104.094 321.5 104.094Z" fill="white"/>
<path d="M108.021 26.889V96.66C108.043 97.0501 108.156 97.4297 108.351 97.7684C108.546 98.1071 108.817 98.3953 109.143 98.61L140.082 116.469C140.7 116.829 141.204 116.535 141.204 115.818V46.05C141.183 45.6599 141.07 45.2802 140.875 44.9416C140.68 44.6029 140.409 44.3147 140.082 44.1L109.143 26.241C108.525 25.881 108.021 26.172 108.021 26.889ZM109.638 35.217C109.638 34.617 110.07 34.353 110.604 34.662L138.732 50.898C139.013 51.0818 139.247 51.3291 139.415 51.6198C139.583 51.9106 139.68 52.2368 139.698 52.572V107.223C139.698 107.841 139.263 108.087 138.732 107.781L110.604 91.542C110.07 91.242 109.638 90.843 109.638 90.231V35.217Z" fill="#E16A3D"/>
<path opacity="0.5" d="M108.021 26.889V96.66C108.043 97.0501 108.156 97.4297 108.351 97.7684C108.546 98.1071 108.817 98.3953 109.143 98.61L140.082 116.469C140.7 116.829 141.204 116.535 141.204 115.818V46.05C141.183 45.6599 141.07 45.2802 140.875 44.9416C140.68 44.6029 140.409 44.3147 140.082 44.1L109.143 26.241C108.525 25.881 108.021 26.172 108.021 26.889ZM109.638 35.217C109.638 34.617 110.07 34.353 110.604 34.662L138.732 50.898C139.013 51.0818 139.247 51.3291 139.415 51.6198C139.583 51.9106 139.68 52.2368 139.698 52.572V107.223C139.698 107.841 139.263 108.087 138.732 107.781L110.604 91.542C110.07 91.242 109.638 90.843 109.638 90.231V35.217Z" fill="black" fill-opacity="0.5"/>
<path d="M140.221 116.538C140.555 116.679 140.916 116.746 141.278 116.734C141.641 116.722 141.996 116.632 142.321 116.469L143.608 115.725C143.936 115.512 144.21 115.225 144.406 114.886C144.602 114.547 144.715 114.166 144.736 113.775V44.01C144.73 43.7195 144.663 43.4335 144.541 43.17C144.502 43.0777 144.457 42.9876 144.409 42.9L140.869 44.943C140.943 45.0763 141.009 45.2146 141.064 45.357C141.148 45.5797 141.193 45.815 141.199 46.053V115.821C141.205 116.481 140.776 116.781 140.221 116.538Z" fill="#E16A3D"/>
<path opacity="0.7" d="M140.221 116.538C140.555 116.679 140.916 116.746 141.278 116.734C141.641 116.722 141.996 116.632 142.321 116.469L143.608 115.725C143.936 115.512 144.21 115.225 144.406 114.886C144.602 114.547 144.715 114.166 144.736 113.775V44.01C144.73 43.7195 144.663 43.4335 144.541 43.17C144.502 43.0777 144.457 42.9876 144.409 42.9L140.869 44.943C140.943 45.0763 141.009 45.2146 141.064 45.357C141.148 45.5797 141.193 45.815 141.199 46.053V115.821C141.205 116.481 140.776 116.781 140.221 116.538Z" fill="black" fill-opacity="0.5"/>
<path d="M124.344 101.4C123.363 100.836 122.568 101.295 122.568 102.426C122.602 103.043 122.78 103.643 123.088 104.177C123.397 104.712 123.827 105.167 124.344 105.504C125.325 106.068 126.12 105.609 126.12 104.478C126.087 103.861 125.909 103.261 125.6 102.727C125.292 102.192 124.862 101.737 124.344 101.4Z" stroke="#E6E6E6" stroke-miterlimit="10"/>
<path d="M124.6 36.675C124.186 36.435 123.847 36.63 123.847 37.11C123.861 37.3716 123.937 37.6262 124.068 37.8533C124.199 38.0804 124.381 38.2738 124.6 38.418C125.017 38.658 125.356 38.463 125.356 37.98C125.341 37.7183 125.265 37.4637 125.134 37.237C125.003 37.0102 124.82 36.8177 124.6 36.675Z" fill="black" fill-opacity="0.5"/>
<path d="M127.524 41.262L121.701 37.899C121.353 37.701 121.071 37.842 121.071 38.217C121.087 38.4288 121.152 38.6339 121.261 38.8159C121.371 38.9978 121.521 39.1513 121.701 39.264L127.524 42.624C127.872 42.825 128.154 42.684 128.154 42.306C128.139 42.0948 128.073 41.8902 127.964 41.7088C127.854 41.5274 127.704 41.3744 127.524 41.262Z" fill="black" fill-opacity="0.5"/>
<path d="M109.639 90.231C109.639 90.831 110.071 91.236 110.605 91.542L138.733 107.781C139.264 108.081 139.699 107.841 139.699 107.223V52.572C139.68 52.2368 139.583 51.9106 139.415 51.6198C139.247 51.3291 139.014 51.0818 138.733 50.898L110.605 34.662C110.071 34.362 109.639 34.602 109.639 35.217V90.231Z" fill="#E16A3D"/>
<path opacity="0.5" d="M109.639 90.231C109.639 90.831 110.071 91.236 110.605 91.542L138.733 107.781C139.264 108.081 139.699 107.841 139.699 107.223V52.572C139.68 52.2368 139.583 51.9106 139.415 51.6198C139.247 51.3291 139.014 51.0818 138.733 50.898L110.605 34.662C110.071 34.362 109.639 34.602 109.639 35.217V90.231Z" fill="white"/>
<path d="M111.519 39.351V38.838C111.519 38.727 111.564 38.661 111.618 38.691L111.645 38.709C111.68 38.7415 111.706 38.7813 111.723 38.8254C111.74 38.8695 111.748 38.9168 111.744 38.964V39.477C111.744 39.588 111.699 39.654 111.645 39.621H111.618C111.582 39.5865 111.555 39.5442 111.538 39.4974C111.52 39.4506 111.514 39.4005 111.519 39.351Z" fill="#455A64"/>
<path d="M111.967 39.6V38.7C111.967 38.589 112.009 38.523 112.063 38.556H112.09C112.124 38.5893 112.151 38.6296 112.168 38.6741C112.185 38.7187 112.192 38.7664 112.189 38.814V39.699C112.189 39.81 112.144 39.873 112.09 39.843L112.063 39.828C112.003 39.7671 111.968 39.6855 111.967 39.6Z" fill="#455A64"/>
<path d="M112.411 39.864V38.604C112.411 38.493 112.456 38.43 112.51 38.46L112.537 38.475C112.571 38.5084 112.597 38.5487 112.614 38.5932C112.632 38.6377 112.639 38.6854 112.636 38.733V39.993C112.636 40.104 112.591 40.167 112.537 40.137H112.51C112.474 40.1019 112.446 40.0591 112.429 40.0118C112.412 39.9646 112.406 39.914 112.411 39.864Z" fill="#455A64"/>
<path d="M112.857 40.119V37.947C112.857 37.836 112.899 37.77 112.953 37.803H112.98C113.014 37.8364 113.041 37.8767 113.058 37.9212C113.075 37.9657 113.082 38.0134 113.079 38.061V40.233C113.079 40.344 113.034 40.41 112.98 40.377H112.953C112.92 40.3435 112.894 40.3031 112.877 40.2585C112.86 40.214 112.854 40.1663 112.857 40.119Z" fill="#455A64"/>
<path d="M114.064 40.965C114.053 40.9393 114.048 40.9118 114.049 40.884V40.566L113.551 40.266C113.538 40.2593 113.527 40.2499 113.518 40.2385C113.509 40.2271 113.503 40.214 113.5 40.2V40.086C113.497 40.0671 113.497 40.048 113.5 40.029C113.504 40.0147 113.509 40.0007 113.515 39.987L114.046 39.15C114.046 39.15 114.064 39.126 114.073 39.123C114.082 39.12 114.091 39.123 114.106 39.123L114.175 39.165C114.196 39.1756 114.214 39.1938 114.223 39.216C114.228 39.2438 114.228 39.2723 114.223 39.3V40.416L114.334 40.479C114.353 40.4903 114.369 40.507 114.379 40.527C114.384 40.5558 114.384 40.5853 114.379 40.614V40.689C114.385 40.7106 114.385 40.7335 114.379 40.755C114.379 40.755 114.355 40.755 114.334 40.755L114.223 40.692V41.01C114.229 41.0316 114.229 41.0545 114.223 41.076C114.223 41.076 114.199 41.076 114.175 41.076L114.091 41.028C114.075 41.0105 114.066 40.9884 114.064 40.965ZM114.082 40.314V39.519L113.719 40.119L114.082 40.314Z" fill="#455A64"/>
<path d="M114.654 41.115C114.551 40.8535 114.501 40.574 114.507 40.293C114.485 40.0658 114.536 39.8376 114.654 39.642C114.754 39.528 114.892 39.522 115.068 39.624C115.216 39.7078 115.338 39.8301 115.422 39.978C115.426 39.9927 115.426 40.0083 115.422 40.023C115.423 40.033 115.423 40.043 115.422 40.053L115.377 40.167C115.377 40.167 115.377 40.185 115.359 40.182C115.35 40.1747 115.343 40.1655 115.338 40.155C115.274 40.0518 115.187 39.9653 115.083 39.903C114.963 39.834 114.867 39.837 114.801 39.918C114.717 40.0663 114.681 40.2374 114.699 40.407C114.693 40.6115 114.726 40.8153 114.798 41.007C114.848 41.146 114.943 41.2642 115.068 41.343C115.106 41.3667 115.148 41.3849 115.191 41.397C115.223 41.4055 115.258 41.4055 115.29 41.397V40.89L115.083 40.77C115.063 40.7585 115.047 40.7405 115.038 40.719C115.033 40.6913 115.033 40.6627 115.038 40.635V40.563C115.038 40.527 115.038 40.506 115.038 40.497C115.038 40.488 115.062 40.497 115.083 40.497L115.413 40.689C115.437 40.7021 115.455 40.7234 115.464 40.749C115.475 40.7809 115.48 40.8144 115.479 40.848V41.586C115.481 41.6059 115.481 41.6261 115.479 41.646C115.477 41.6569 115.47 41.6666 115.461 41.673C115.395 41.6962 115.324 41.7023 115.255 41.6908C115.185 41.6793 115.12 41.6504 115.065 41.607C114.878 41.4919 114.734 41.3193 114.654 41.115Z" fill="#455A64"/>
<path d="M137.421 52.2C137.39 52.081 137.32 51.9756 137.223 51.9L135.723 51.036C135.594 50.961 135.495 51.108 135.495 51.372V52.5C135.497 52.6557 135.525 52.81 135.579 52.956C135.601 53.0145 135.628 53.0707 135.66 53.124C135.69 53.174 135.729 53.217 135.777 53.25L137.277 54.114C137.406 54.186 137.508 54.039 137.508 53.775V52.656C137.505 52.5002 137.476 52.3459 137.421 52.2ZM135.639 52.875C135.616 52.8116 135.605 52.7445 135.606 52.677V51.558C135.606 51.363 135.687 51.243 135.78 51.3L137.28 52.164C137.306 52.1794 137.328 52.2011 137.343 52.227C137.353 52.2442 137.361 52.2623 137.367 52.281C137.39 52.3455 137.401 52.4136 137.4 52.482V53.598C137.4 53.793 137.319 53.913 137.226 53.856L135.726 52.992C135.682 52.9629 135.651 52.9177 135.639 52.866V52.875Z" fill="#455A64"/>
<path d="M136.582 51.954V53.277L135.778 52.8L135.751 52.779C135.753 52.764 135.753 52.7489 135.751 52.734V51.729C135.751 51.588 135.814 51.498 135.883 51.537L136.582 51.954Z" fill="#455A64"/>
<path d="M137.581 52.698C137.638 52.728 137.683 52.941 137.683 53.169V53.376C137.683 53.607 137.638 53.772 137.581 53.745L137.479 53.697V52.641L137.581 52.698Z" fill="#455A64"/>
<path d="M133.87 51.7229C133.87 51.9689 133.741 52.0949 133.57 52.0019C133.476 51.9294 133.4 51.8362 133.348 51.7295C133.296 51.6229 133.269 51.5056 133.27 51.3869C133.27 51.1409 133.399 51.0179 133.57 51.1079C133.664 51.1801 133.74 51.2733 133.792 51.38C133.844 51.4868 133.871 51.6042 133.87 51.7229Z" fill="#455A64"/>
<path d="M133.579 50.379C133.522 50.3383 133.456 50.3119 133.387 50.3019C133.318 50.2919 133.248 50.2986 133.182 50.3216C133.116 50.3445 133.056 50.383 133.009 50.4337C132.961 50.4844 132.926 50.5459 132.907 50.613C132.895 50.6525 132.892 50.6938 132.897 50.7346C132.902 50.7754 132.916 50.8147 132.937 50.85C132.991 50.946 133.072 50.97 133.105 50.892C133.117 50.8437 133.141 50.7991 133.174 50.7624C133.208 50.7256 133.25 50.6978 133.297 50.6814C133.344 50.6651 133.394 50.6607 133.443 50.6686C133.493 50.6766 133.539 50.6966 133.579 50.727C133.819 50.8985 133.988 51.1528 134.053 51.441C134.086 51.555 134.167 51.627 134.224 51.591C134.247 51.5634 134.263 51.5295 134.268 51.4934C134.274 51.4572 134.268 51.4203 134.254 51.387C134.157 50.9809 133.917 50.6231 133.579 50.379Z" fill="#455A64"/>
<path d="M133.579 49.665C133.496 49.6043 133.4 49.5629 133.299 49.5441C133.198 49.5252 133.094 49.5294 132.994 49.5561C132.895 49.5829 132.803 49.6317 132.725 49.6988C132.647 49.766 132.585 49.8497 132.544 49.944C132.53 49.9848 132.525 50.0282 132.529 50.0711C132.533 50.1141 132.546 50.1557 132.568 50.193C132.619 50.289 132.697 50.313 132.733 50.244C132.766 50.167 132.816 50.0984 132.88 50.0435C132.943 49.9886 133.018 49.9487 133.099 49.9267C133.18 49.9048 133.265 49.9015 133.348 49.9169C133.43 49.9324 133.508 49.9663 133.576 50.016C133.988 50.3066 134.287 50.7305 134.422 51.216C134.458 51.324 134.536 51.393 134.587 51.357C134.635 51.327 134.644 51.231 134.611 51.135C134.445 50.5416 134.081 50.0229 133.579 49.665Z" fill="#455A64"/>
<path d="M108.03 26.7C108.111 26.1 108.579 25.902 109.143 26.229L140.082 44.1C140.415 44.3072 140.689 44.5965 140.877 44.94L144.417 42.897C144.227 42.5548 143.952 42.2667 143.619 42.06L112.686 24.198C112.337 24.0204 111.951 23.9279 111.56 23.9279C111.168 23.9279 110.782 24.0204 110.433 24.198L109.143 24.939C108.843 25.1362 108.588 25.3954 108.396 25.6991C108.204 26.0028 108.08 26.3441 108.03 26.7Z" fill="#E16A3D"/>
<path opacity="0.2" d="M108.03 26.7C108.111 26.1 108.579 25.902 109.143 26.229L140.082 44.1C140.415 44.3072 140.689 44.5965 140.877 44.94L144.417 42.897C144.227 42.5548 143.952 42.2667 143.619 42.06L112.686 24.198C112.337 24.0204 111.951 23.9279 111.56 23.9279C111.168 23.9279 110.782 24.0204 110.433 24.198L109.143 24.939C108.843 25.1362 108.588 25.3954 108.396 25.6991C108.204 26.0028 108.08 26.3441 108.03 26.7Z" fill="black" fill-opacity="0.5"/>
<path d="M72.8559 26.241L41.9169 44.1C41.5905 44.3147 41.3189 44.6029 41.1241 44.9416C40.9292 45.2802 40.8165 45.6599 40.7949 46.05V115.818C40.7949 116.535 41.2989 116.829 41.9169 116.469L72.8559 98.61C73.1824 98.3953 73.4539 98.1071 73.6488 97.7684C73.8436 97.4297 73.9564 97.0501 73.9779 96.66V26.889C73.9779 26.172 73.4739 25.881 72.8559 26.241ZM72.3609 90.231C72.3609 90.831 71.9289 91.236 71.3949 91.542L43.2669 107.781C42.7359 108.081 42.3009 107.841 42.3009 107.223V52.572C42.3195 52.2368 42.4166 51.9106 42.5844 51.6198C42.7522 51.3291 42.986 51.0818 43.2669 50.898L71.3949 34.662C71.9289 34.362 72.3609 34.602 72.3609 35.217V90.231Z" fill="#E16A3D"/>
<path opacity="0.5" d="M72.8559 26.241L41.9169 44.1C41.5905 44.3147 41.3189 44.6029 41.1241 44.9416C40.9292 45.2802 40.8165 45.6599 40.7949 46.05V115.818C40.7949 116.535 41.2989 116.829 41.9169 116.469L72.8559 98.61C73.1824 98.3953 73.4539 98.1071 73.6488 97.7684C73.8436 97.4297 73.9564 97.0501 73.9779 96.66V26.889C73.9779 26.172 73.4739 25.881 72.8559 26.241ZM72.3609 90.231C72.3609 90.831 71.9289 91.236 71.3949 91.542L43.2669 107.781C42.7359 108.081 42.3009 107.841 42.3009 107.223V52.572C42.3195 52.2368 42.4166 51.9106 42.5844 51.6198C42.7522 51.3291 42.986 51.0818 43.2669 50.898L71.3949 34.662C71.9289 34.362 72.3609 34.602 72.3609 35.217V90.231Z" fill="black" fill-opacity="0.5"/>
<path d="M41.7787 116.538C41.4445 116.679 41.0837 116.746 40.7211 116.734C40.3585 116.722 40.0029 116.632 39.6787 116.469L38.3917 115.725C38.063 115.512 37.7893 115.225 37.5933 114.886C37.3972 114.547 37.2842 114.166 37.2637 113.775V44.01C37.2699 43.7195 37.3363 43.4335 37.4587 43.17C37.4978 43.0777 37.5419 42.9876 37.5907 42.9L41.1307 44.943C41.056 45.0763 40.9908 45.2146 40.9357 45.357C40.8516 45.5797 40.8059 45.815 40.8007 46.053V115.821C40.7947 116.481 41.2237 116.781 41.7787 116.538Z" fill="#E16A3D"/>
<path opacity="0.7" d="M41.7787 116.538C41.4445 116.679 41.0837 116.746 40.7211 116.734C40.3585 116.722 40.0029 116.632 39.6787 116.469L38.3917 115.725C38.063 115.512 37.7893 115.225 37.5933 114.886C37.3972 114.547 37.2842 114.166 37.2637 113.775V44.01C37.2699 43.7195 37.3363 43.4335 37.4587 43.17C37.4978 43.0777 37.5419 42.9876 37.5907 42.9L41.1307 44.943C41.056 45.0763 40.9908 45.2146 40.9357 45.357C40.8516 45.5797 40.8059 45.815 40.8007 46.053V115.821C40.7947 116.481 41.2237 116.781 41.7787 116.538Z" fill="black" fill-opacity="0.5"/>
<path d="M57.6549 101.4C58.6359 100.836 59.4309 101.295 59.4309 102.426C59.3977 103.043 59.2196 103.643 58.911 104.177C58.6024 104.712 58.1721 105.167 57.6549 105.504C56.6739 106.068 55.8789 105.609 55.8789 104.478C55.9121 103.861 56.0902 103.261 56.3988 102.727C56.7074 102.192 57.1377 101.737 57.6549 101.4Z" stroke="#E6E6E6" stroke-miterlimit="10"/>
<path d="M57.3996 36.675C57.8136 36.435 58.1526 36.63 58.1526 37.11C58.1378 37.3716 58.062 37.6262 57.9312 37.8533C57.8005 38.0804 57.6184 38.2738 57.3996 38.418C56.9826 38.658 56.6436 38.463 56.6436 37.98C56.658 37.7183 56.734 37.4637 56.8653 37.237C56.9967 37.0102 57.1797 36.8177 57.3996 36.675Z" fill="black" fill-opacity="0.5"/>
<path d="M54.4747 41.262L60.2977 37.899C60.6457 37.701 60.9277 37.842 60.9277 38.217C60.9124 38.4288 60.8474 38.6339 60.738 38.8159C60.6285 38.9978 60.4777 39.1513 60.2977 39.264L54.4747 42.624C54.1267 42.825 53.8447 42.684 53.8447 42.306C53.8605 42.0948 53.9257 41.8902 54.0351 41.7088C54.1446 41.5274 54.2952 41.3744 54.4747 41.262Z" fill="black" fill-opacity="0.5"/>
<path d="M72.3608 90.231C72.3608 90.831 71.9288 91.236 71.3948 91.542L43.2668 107.781C42.7358 108.081 42.3008 107.841 42.3008 107.223V52.572C42.3193 52.2368 42.4164 51.9106 42.5842 51.6198C42.752 51.3291 42.9858 51.0818 43.2668 50.898L71.3948 34.662C71.9288 34.362 72.3608 34.602 72.3608 35.217V90.231Z" fill="#E16A3D"/>
<path opacity="0.9" d="M72.3608 90.231C72.3608 90.831 71.9288 91.236 71.3948 91.542L43.2668 107.781C42.7358 108.081 42.3008 107.841 42.3008 107.223V52.572C42.3193 52.2368 42.4164 51.9106 42.5842 51.6198C42.752 51.3291 42.9858 51.0818 43.2668 50.898L71.3948 34.662C71.9288 34.362 72.3608 34.602 72.3608 35.217V90.231Z" fill="white"/>
<path d="M65.041 41.871C65.041 42.12 65.17 42.243 65.341 42.15C65.4337 42.0797 65.5089 41.989 65.5609 41.8849C65.6129 41.7809 65.6403 41.6663 65.641 41.55C65.641 41.304 65.512 41.178 65.341 41.271C65.2484 41.3413 65.1732 41.432 65.1211 41.5361C65.0691 41.6401 65.0417 41.7547 65.041 41.871Z" fill="#455A64"/>
<path d="M64.6564 41.541C64.6415 41.5744 64.6364 41.6113 64.6417 41.6474C64.647 41.6835 64.6625 41.7174 64.6864 41.745C64.7434 41.778 64.8244 41.706 64.8574 41.592C64.9237 41.3045 65.0921 41.0507 65.3314 40.878C65.3711 40.8477 65.4177 40.8277 65.467 40.8199C65.5164 40.8121 65.5669 40.8168 65.614 40.8335C65.661 40.8502 65.7032 40.8784 65.7366 40.9155C65.7701 40.9526 65.7937 40.9975 65.8054 41.046C65.8384 41.121 65.9194 41.1 65.9734 41.001C65.9948 40.9653 66.0085 40.9255 66.0137 40.8842C66.0188 40.8429 66.0153 40.8009 66.0034 40.761C65.9839 40.6942 65.9486 40.633 65.9006 40.5826C65.8525 40.5322 65.7931 40.4941 65.7272 40.4715C65.6614 40.4489 65.5911 40.4424 65.5222 40.4526C65.4533 40.4627 65.3879 40.4893 65.3314 40.53C64.9922 40.7749 64.7525 41.1338 64.6564 41.541Z" fill="#455A64"/>
<path d="M64.2999 41.289C64.2669 41.385 64.2759 41.481 64.3239 41.511C64.3749 41.544 64.4529 41.478 64.4889 41.37C64.6258 40.8852 64.9243 40.4618 65.3349 40.17C65.4027 40.1203 65.4808 40.0866 65.5635 40.0714C65.6461 40.0561 65.7311 40.0597 65.8122 40.0819C65.8932 40.1042 65.9682 40.1444 66.0316 40.1996C66.0949 40.2549 66.1449 40.3237 66.1779 40.401C66.2139 40.467 66.2919 40.446 66.3429 40.35C66.3641 40.3125 66.3769 40.2708 66.3806 40.2278C66.3842 40.1848 66.3785 40.1416 66.3639 40.101C66.3227 40.0071 66.2609 39.9236 66.183 39.8568C66.1052 39.79 66.0133 39.7415 65.9142 39.715C65.8151 39.6885 65.7113 39.6846 65.6105 39.7037C65.5097 39.7227 65.4145 39.7642 65.3319 39.825C64.8313 40.1814 64.4673 40.6978 64.2999 41.289Z" fill="#455A64"/>
<path d="M44.0802 54.24V53.796C44.0791 53.7502 44.0885 53.7047 44.1078 53.6631C44.127 53.6215 44.1556 53.5849 44.1912 53.556L44.2242 53.538C44.2842 53.502 44.3352 53.538 44.3352 53.646V54.09C44.3362 54.1359 44.3268 54.1813 44.3075 54.2229C44.2883 54.2645 44.2598 54.3012 44.2242 54.33L44.1912 54.348C44.1282 54.384 44.0802 54.336 44.0802 54.24Z" fill="#455A64"/>
<path d="M44.5929 53.9429V53.1749C44.5918 53.1291 44.6012 53.0837 44.6205 53.0421C44.6397 53.0004 44.6682 52.9638 44.7039 52.9349L44.7369 52.9169C44.7999 52.8809 44.8509 52.9169 44.8509 53.0249V53.7929C44.8516 53.839 44.8416 53.8846 44.8219 53.9263C44.8021 53.9679 44.773 54.0044 44.7369 54.0329L44.7039 54.0509C44.6439 54.0869 44.5929 54.0389 44.5929 53.9429Z" fill="#455A64"/>
<path d="M45.0996 53.646V52.554C45.0994 52.5085 45.1095 52.4634 45.1293 52.4224C45.149 52.3813 45.1779 52.3453 45.2136 52.317L45.2436 52.299C45.3066 52.263 45.3576 52.299 45.3576 52.407V53.496C45.3583 53.5421 45.3484 53.5877 45.3286 53.6293C45.3089 53.671 45.2798 53.7075 45.2436 53.736L45.2136 53.754C45.1566 53.79 45.0996 53.742 45.0996 53.646Z" fill="#455A64"/>
<path d="M45.6221 53.349V51.465C45.6215 51.4197 45.6312 51.3748 45.6504 51.3338C45.6696 51.2927 45.6979 51.2566 45.7331 51.228L45.7661 51.21C45.8291 51.174 45.8801 51.21 45.8801 51.318V53.199C45.8812 53.2449 45.8717 53.2903 45.8525 53.3319C45.8332 53.3735 45.8047 53.4102 45.7691 53.439L45.7361 53.457C45.6731 53.493 45.6221 53.445 45.6221 53.349Z" fill="#455A64"/>
<path d="M47.014 52.674C47.014 52.674 47.014 52.647 47.014 52.62V52.344L46.435 52.677C46.405 52.695 46.39 52.677 46.39 52.644V52.545C46.3882 52.5271 46.3882 52.509 46.39 52.491L46.411 52.434L47.011 51.09C47.0196 51.0713 47.0296 51.0532 47.041 51.036C47.0528 51.0237 47.0659 51.0126 47.08 51.003L47.161 50.958C47.185 50.942 47.203 50.942 47.215 50.958C47.2224 50.9774 47.2224 50.9987 47.215 51.018V51.981L47.344 51.909C47.368 51.894 47.383 51.891 47.395 51.909C47.407 51.927 47.395 51.936 47.395 51.966V52.032C47.4003 52.0558 47.4003 52.0803 47.395 52.104C47.3826 52.1243 47.365 52.1409 47.344 52.152L47.215 52.227V52.5C47.2175 52.5251 47.2122 52.5504 47.1999 52.5724C47.1875 52.5944 47.1687 52.6121 47.146 52.623L47.05 52.677C47.041 52.677 47.023 52.68 47.014 52.674ZM47.035 52.074V51.384L46.618 52.314L47.035 52.074Z" fill="#455A64"/>
<path d="M47.6975 52.1099C47.5835 52.0259 47.5295 51.8459 47.5295 51.5699C47.5256 51.315 47.5833 51.0629 47.6975 50.8349C47.8057 50.6268 47.9712 50.4541 48.1745 50.3369C48.2469 50.294 48.3245 50.2608 48.4055 50.2379C48.4641 50.2195 48.5269 50.2195 48.5855 50.2379C48.5873 50.2411 48.5883 50.2447 48.5883 50.2484C48.5883 50.2521 48.5873 50.2557 48.5855 50.2589C48.5877 50.2698 48.5877 50.281 48.5855 50.2919L48.5315 50.4419C48.5315 50.4629 48.5315 50.4749 48.5105 50.4779H48.4865C48.3808 50.4677 48.2749 50.4942 48.1865 50.5529C48.0474 50.6351 47.9341 50.7546 47.8595 50.8979C47.7771 51.0668 47.737 51.2531 47.7425 51.4409C47.7425 51.6539 47.7815 51.7919 47.8565 51.8489C47.9315 51.9059 48.0395 51.8999 48.1715 51.8249C48.221 51.7957 48.2682 51.7626 48.3125 51.7259C48.3547 51.6936 48.393 51.6563 48.4265 51.6149V51.1679L48.1865 51.3059C48.1625 51.3209 48.1445 51.3239 48.1355 51.3059C48.1286 51.2876 48.1286 51.2673 48.1355 51.2489V51.1859C48.1297 51.1613 48.1297 51.1356 48.1355 51.1109C48.1478 51.0906 48.1655 51.0741 48.1865 51.0629L48.5705 50.8439C48.5975 50.8259 48.6155 50.8259 48.6275 50.8439C48.6395 50.8619 48.6455 50.8769 48.6455 50.9129V51.5519C48.6475 51.5719 48.6475 51.592 48.6455 51.6119C48.6405 51.6284 48.6323 51.6436 48.6215 51.6569C48.5011 51.8239 48.3454 51.9621 48.1655 52.0619C47.9705 52.1759 47.7995 52.1999 47.6975 52.1099Z" fill="#455A64"/>
<path d="M69.6726 37.731C69.6437 37.7006 69.6048 37.6815 69.563 37.6771C69.5213 37.6727 69.4793 37.6833 69.4446 37.707L67.7166 38.7C67.632 38.7672 67.5642 38.8531 67.5184 38.951C67.4725 39.0489 67.45 39.156 67.4526 39.264V40.23C67.448 40.2841 67.4544 40.3386 67.4714 40.3902C67.4884 40.4417 67.5157 40.4893 67.5516 40.53C67.5768 40.556 67.6092 40.5738 67.6446 40.581C67.6914 40.5893 67.7396 40.5797 67.7796 40.554L69.5076 39.558C69.5922 39.4908 69.6601 39.4049 69.7059 39.307C69.7517 39.2092 69.7742 39.102 69.7716 38.994V38.028C69.7758 37.9744 69.7692 37.9205 69.7522 37.8695C69.7352 37.8185 69.7082 37.7714 69.6726 37.731ZM67.6146 40.395C67.5862 40.355 67.5734 40.3059 67.5786 40.257V39.3C67.5778 39.218 67.5954 39.1369 67.6302 39.0626C67.665 38.9883 67.7161 38.9228 67.7796 38.871L69.5076 37.875C69.529 37.8614 69.5543 37.8551 69.5796 37.857H69.6096C69.6381 37.8971 69.6509 37.9462 69.6456 37.995V38.961C69.6465 39.043 69.6289 39.1242 69.5941 39.1985C69.5593 39.2727 69.5082 39.3382 69.4446 39.39L67.7166 40.386C67.6746 40.416 67.6386 40.419 67.6146 40.395Z" fill="#455A64"/>
<path d="M68.7041 38.502V39.648L67.7741 40.185H67.7441C67.7458 40.172 67.7458 40.1589 67.7441 40.146V39.3C67.7443 39.2392 67.7578 39.1792 67.7837 39.1242C67.8096 39.0693 67.8473 39.0207 67.8941 38.982L68.7041 38.502Z" fill="#455A64"/>
<path d="M69.8582 37.98C69.9212 37.944 69.9722 38.076 69.9722 38.28V38.46C69.9873 38.6144 69.9457 38.769 69.8552 38.895L69.7412 38.97V38.07L69.8582 37.98Z" fill="#455A64"/>
<path d="M73.969 26.7001C73.888 26.1001 73.42 25.9021 72.856 26.2291L41.917 44.1001C41.5844 44.3073 41.3106 44.5966 41.122 44.9401L37.582 42.9001C37.7727 42.5578 38.0473 42.2698 38.38 42.0631L69.313 24.1981C69.6615 24.0205 70.047 23.928 70.438 23.928C70.8291 23.928 71.2146 24.0205 71.563 24.1981L72.856 24.9391C73.1564 25.1363 73.4111 25.3954 73.603 25.6992C73.795 26.0029 73.9198 26.3442 73.969 26.7001Z" fill="#E16A3D"/>
<path opacity="0.2" d="M73.969 26.7001C73.888 26.1001 73.42 25.9021 72.856 26.2291L41.917 44.1001C41.5844 44.3073 41.3106 44.5966 41.122 44.9401L37.582 42.9001C37.7727 42.5578 38.0473 42.2698 38.38 42.0631L69.313 24.1981C69.6615 24.0205 70.047 23.928 70.438 23.928C70.8291 23.928 71.2146 24.0205 71.563 24.1981L72.856 24.9391C73.1564 25.1363 73.4111 25.3954 73.603 25.6992C73.795 26.0029 73.9198 26.3442 73.969 26.7001Z" fill="black" fill-opacity="0.5"/>
<path d="M130.933 93.774C130.933 93.774 127.726 96.9841 123.463 95.7571C123.463 95.7571 124.747 97.023 127.768 96.174C129.805 95.601 130.933 93.774 130.933 93.774Z" fill="#407BFF"/>
<path d="M137.299 74.1001C137.299 74.1001 138.937 78.3301 136.099 81.7321C136.099 81.7321 137.776 81.0721 138.22 77.9641C138.511 75.8581 137.299 74.1001 137.299 74.1001Z" fill="#407BFF"/>
<path d="M130.6 95.121C133.6 92.034 134.905 88.431 134.935 84.75C134.935 84.75 135.808 86.94 134.446 90.396C133.084 93.852 130.6 95.121 130.6 95.121Z" fill="#407BFF"/>
<path d="M47.8385 90.6571C47.8385 90.6571 47.7995 95.1931 51.6635 97.3741C51.6635 97.3741 49.8635 97.3441 48.3635 94.5961C47.3285 92.7421 47.8385 90.6571 47.8385 90.6571Z" fill="#407BFF"/>
<path d="M46.8609 92.475C46.194 88.6376 47.0707 84.692 49.2999 81.498C49.2999 81.498 47.3259 82.785 46.4499 86.397C45.5739 90.009 46.8609 92.475 46.8609 92.475Z" fill="#407BFF"/>
<path d="M114.058 67.2001L115.327 63.4052C111.985 64.0052 111.076 64.4612 110.089 67.2242L109.435 69.4261L105.433 81.7442C104.485 81.9932 92.6826 85.2452 92.2716 85.2962C92.2716 85.2962 92.2536 85.3262 92.2416 85.3412C88.3866 85.5872 87.1416 85.7581 87.1416 85.7581C88.2246 88.5901 90.2556 90.1862 93.0606 90.7622V90.6962V90.7172C98.0256 89.8712 106.171 87.9511 108.82 87.0721C109.936 86.7151 110.413 85.4581 110.872 84.4081C112.747 80.1211 114.706 74.3432 115.372 70.8662C115.804 68.7722 115.171 67.7251 114.058 67.2001Z" fill="#EF9897"/>
<path d="M115.327 63.3901C115.327 63.3901 112.006 62.8801 110.566 65.9281C109.6 67.9861 106.645 76.8001 106.645 76.8001C106.645 76.8001 108.745 79.5001 113.344 79.6651C113.344 79.6651 117.688 69.6901 117.445 69.3721C117.202 69.0541 115.327 63.3901 115.327 63.3901Z" fill="white"/>
<path d="M114.718 63.3271C113.911 63.4051 111.865 66.1411 111.823 70.7971C111.766 77.0341 114.823 84.6691 115.591 86.3161C116.359 87.9631 117.853 91.1881 120.391 93.5821C121.21 94.3501 126.802 96.5251 130.405 92.4751C134.071 88.3561 133.492 82.9441 132.76 81.2491C131.533 78.4111 129.364 75.1081 129.442 71.3731C128.983 68.6911 128.104 65.2201 126.1 63.7651C125.275 63.5551 122.677 63.2221 122.17 63.2911L114.718 63.3271Z" fill="#FAFAFA"/>
<path d="M125.278 68.2771L124.255 69.5611C124.555 71.5981 126.1 74.5411 127.897 76.8901C129.298 78.7231 132.148 80.6131 133.297 83.8501C133.265 82.9609 133.089 82.0826 132.778 81.2491C131.551 78.4111 129.382 75.1081 129.46 71.3731C129.385 70.9291 129.295 70.4731 129.193 69.9901L128.233 69.1201L125.278 68.2771Z" fill="#EBEBEB"/>
<path d="M126.099 63.7651C127.854 64.1971 128.799 65.1241 130.335 66.8791C132.099 68.8591 135.699 73.0231 135.699 73.0231C138.216 77.3851 135.954 81.8221 134.067 81.0931C134.067 81.0931 129.813 76.9381 127.203 73.7881C125.454 71.6881 124.563 70.4881 124.464 68.1751C124.38 66.3571 124.704 64.5001 126.099 63.7651Z" fill="#EF9897"/>
<path d="M125.182 63.6C125.182 63.6 126.697 63.264 128.668 64.851C130.639 66.438 135.457 71.682 135.457 71.682C135.457 71.682 135.601 77.235 132.064 79.74C132.064 79.74 126.844 74.502 125.557 72.69C124.662 71.3571 124.153 69.8023 124.086 68.198C124.02 66.5936 124.399 65.0022 125.182 63.6Z" fill="white"/>
<path d="M124.254 53.1001C124.254 53.1001 123.492 57.7531 123.135 58.5271C122.896 59.007 122.48 59.3757 121.974 59.5561L121.899 56.3251L124.254 53.1001Z" fill="#263238"/>
<path d="M121.779 46.3471C121.779 46.3471 123.036 45.7141 123.897 46.5151C124.758 47.3161 124.815 50.0701 124.167 53.6371L122.001 53.5231L121.779 46.3471Z" fill="#263238"/>
<path d="M115.133 56.6891C118.414 56.0399 120.548 52.8534 119.899 49.5718C119.25 46.2902 116.063 44.1562 112.782 44.8054C109.5 45.4546 107.366 48.6411 108.015 51.9227C108.664 55.2043 111.851 57.3383 115.133 56.6891Z" fill="#263238"/>
<path d="M121.96 46.8181L123.835 45.0961C123.728 44.9676 123.595 44.8621 123.446 44.7861C123.298 44.7101 123.135 44.6651 122.968 44.6539C122.801 44.6427 122.633 44.6655 122.476 44.7208C122.318 44.7762 122.173 44.8631 122.05 44.9761C121.8 45.2126 121.652 45.536 121.635 45.879C121.619 46.2221 121.735 46.5584 121.96 46.8181Z" fill="#263238"/>
<path d="M110.743 47.2052C110.362 47.8622 108.457 50.6221 109.153 55.8061C109.807 60.6872 111.376 61.8331 112.21 62.0911C113.044 62.3491 114.718 62.2021 116.182 61.7911L116.446 63.8642C116.446 63.8642 115.591 65.2381 116.746 65.9972C117.901 66.7562 120.442 66.1982 121.03 65.7302C122.413 64.6231 122.203 63.6901 122.203 63.6901L121.903 56.9581C121.903 56.9581 122.944 57.8162 124.285 56.8052C125.551 55.8541 125.608 53.3401 124.54 52.4761C123.472 51.6121 121.759 52.1281 121.525 53.5171C121.525 53.5171 121.48 48.3571 118.549 46.9861C114.796 45.2281 110.743 47.2052 110.743 47.2052Z" fill="#EF9897"/>
<path d="M121.188 54.1891C121.353 54.1021 121.635 52.7221 122.448 52.2541C123.195 51.8221 121.785 45.6541 121.779 45.6241C121.695 45.1711 121.23 44.6401 120.927 44.3101C120.47 43.8242 119.896 43.4628 119.259 43.2601C118.385 42.9931 117.46 42.9376 116.559 43.0981C115.161 43.3141 113.82 43.8961 112.407 43.9021C111.066 43.9021 109.785 43.3831 108.471 43.1221C108.22 43.0431 107.948 43.0613 107.709 43.1731C107.587 43.2576 107.491 43.3752 107.433 43.5121C107.268 43.9092 107.253 44.3528 107.391 44.7601C107.535 45.1633 107.738 45.5433 107.991 45.8881C107.523 45.6691 106.863 45.6511 106.593 46.0891C106.38 46.4341 106.512 46.8841 106.707 47.2381C107.529 48.7141 108.99 49.3621 110.526 49.7131C111.172 49.8225 111.825 49.8827 112.479 49.8931C114.135 49.9861 115.725 49.3231 117.252 48.6751C117.672 48.4951 118.491 48.1891 118.95 48.5611C119.52 49.0231 119.493 50.5171 119.664 51.7441C119.925 53.6671 120.564 54.5251 121.188 54.1891Z" fill="#263238"/>
<path d="M115.9 57.9001L114.229 58.6471C114.273 58.76 114.339 58.8627 114.424 58.9492C114.509 59.0356 114.611 59.104 114.723 59.1503C114.835 59.1965 114.955 59.2196 115.077 59.2182C115.198 59.2168 115.318 59.1909 115.429 59.1421C115.651 59.0352 115.825 58.8466 115.912 58.6154C116 58.3841 115.995 58.128 115.9 57.9001Z" fill="#9A4A4D"/>
<path d="M109.899 53.9131C109.911 54.0343 109.959 54.1494 110.036 54.2439C110.113 54.3384 110.216 54.4082 110.332 54.4446C110.448 54.4809 110.573 54.4822 110.69 54.4484C110.807 54.4145 110.912 54.3469 110.991 54.2541C111.069 54.1612 111.119 54.0472 111.134 53.9262C111.149 53.8052 111.127 53.6826 111.073 53.5736C111.018 53.4647 110.933 53.3742 110.827 53.3135C110.721 53.2527 110.6 53.2244 110.478 53.2321C110.311 53.2458 110.157 53.3252 110.048 53.4529C109.94 53.5805 109.886 53.746 109.899 53.9131Z" fill="#263238"/>
<path d="M114.718 53.6161C114.73 53.7373 114.777 53.8524 114.854 53.9469C114.931 54.0414 115.034 54.1112 115.151 54.1476C115.267 54.1839 115.392 54.1852 115.509 54.1514C115.626 54.1175 115.73 54.0499 115.809 53.9571C115.888 53.8642 115.938 53.7502 115.953 53.6292C115.967 53.5082 115.946 53.3856 115.891 53.2767C115.837 53.1677 115.751 53.0772 115.646 53.0165C115.54 52.9557 115.419 52.9274 115.297 52.9351C115.214 52.9415 115.133 52.9642 115.059 53.002C114.985 53.0398 114.92 53.0918 114.866 53.1551C114.812 53.2184 114.771 53.2917 114.746 53.3708C114.721 53.4499 114.711 53.5333 114.718 53.6161Z" fill="#263238"/>
<path d="M113.086 53.748L112.975 57.471L111.016 56.859L113.086 53.748Z" fill="#9A4A4D"/>
<path d="M116.182 61.8001C117.412 61.5181 119.818 60.4831 120.274 59.5831C120.274 59.5831 120.319 60.1561 119.59 61.0261C118.861 61.8961 116.305 62.7661 116.305 62.7661L116.182 61.8001Z" fill="#9A4A4D"/>
<path d="M109.411 52.6201L110.8 52.0201C110.714 51.8342 110.56 51.6887 110.369 51.6138C110.178 51.5389 109.966 51.5404 109.777 51.6181C109.686 51.6584 109.604 51.7167 109.536 51.7894C109.468 51.8621 109.415 51.9478 109.381 52.0413C109.347 52.1348 109.332 52.2343 109.337 52.3337C109.342 52.4332 109.367 52.5306 109.411 52.6201Z" fill="#263238"/>
<path d="M115.093 51.7231L116.419 52.4431C116.513 52.2615 116.533 52.0502 116.475 51.8541C116.416 51.658 116.283 51.4926 116.104 51.3931C116.016 51.3456 115.92 51.3164 115.821 51.3074C115.722 51.2983 115.622 51.3096 115.527 51.3405C115.433 51.3713 115.345 51.4212 115.271 51.487C115.196 51.5528 115.135 51.6331 115.093 51.7231Z" fill="#263238"/>
<path d="M75.163 62.7661H64.825C62.3565 62.7653 59.989 61.786 58.2413 60.0427C56.4935 58.2995 55.5081 55.9345 55.501 53.4661V51.8431C55.4962 49.4614 56.4375 47.1754 58.118 45.4876C59.7984 43.7999 62.0803 42.8486 64.462 42.8431H66.148C67.3274 42.8395 68.4958 43.0685 69.5866 43.5169C70.6774 43.9653 71.6691 44.6243 72.505 45.4563C73.3409 46.2883 74.0046 47.2769 74.4581 48.3656C74.9116 49.4543 75.146 50.6217 75.148 51.8011L75.163 62.7661Z" fill="#263238"/>
<path d="M66.6064 63.348C70.3144 63.069 72.6514 64.788 72.7294 68.235C72.7714 69.972 71.2654 76.887 71.2654 76.887L66.6064 63.348Z" fill="#FFA8A7"/>
<path d="M66.6066 63.348C68.4936 63.537 70.5756 66.759 72.3876 70.902C73.0986 72.534 74.3976 74.73 72.7596 77.784C71.7456 79.671 69.6576 80.433 69.6576 80.433C68.9017 82.8003 67.8106 85.0471 66.4176 87.105C65.5475 89.8756 63.9646 92.3688 61.8276 94.335C60.9876 95.079 55.8546 99.624 51.7176 96.117C49.2576 94.032 48.3996 90.717 48.6516 87.588C48.7986 85.749 49.2066 83.931 50.4996 82.614C51.245 81.8555 51.9339 81.0433 52.5606 80.184C53.2176 77.055 52.4646 74.931 52.3866 71.184C52.8456 68.502 53.9826 66.228 55.9866 64.776C57.4708 64.1887 59.0318 63.8179 60.6216 63.675L66.6066 63.348Z" fill="#FFB803"/>
<path opacity="0.1" d="M66.5436 86.9191L66.2916 84.9001C66.2916 84.9001 57.5916 71.2621 57.2226 70.8781C57.0066 70.6471 54.9186 69.2551 53.2866 68.1781C52.8594 69.1354 52.5569 70.1437 52.3866 71.1781C52.4646 74.9131 53.2176 77.0371 52.5606 80.1781C52.5606 80.1781 52.1136 80.8111 51.3906 81.6421C52.6806 81.9781 54.7836 80.3551 54.7836 80.3551C54.7836 80.3551 58.9836 86.2921 60.8316 88.4011C62.5566 90.3781 63.5886 90.6721 64.8636 90.5851C65.5197 89.4897 66.0415 88.3193 66.4176 87.0991C66.4626 87.0421 66.5016 86.9791 66.5436 86.9191Z" fill="black"/>
<path opacity="0.05" d="M72.7596 77.7841C72.8466 77.6191 72.9276 77.4571 72.9996 77.2951C71.3106 78.5911 70.1346 77.6791 68.7186 77.4061C67.2546 77.1241 66.1686 79.2061 63.4296 78.9481C59.8296 78.6001 58.5246 76.3351 58.5246 76.3351C58.5246 76.3351 58.4286 80.2561 62.8896 81.1171C65.8716 81.6931 66.9666 80.0821 67.7916 80.0821C68.1516 80.0821 68.4726 80.3611 69.6576 80.4331C69.6576 80.4331 71.7456 79.6711 72.7596 77.7841Z" fill="black"/>
<path d="M71.7489 47.7001C72.1209 48.3421 73.9689 51.0211 73.2939 56.0521C72.6579 60.7891 71.1339 61.5601 70.3239 61.8121C69.5139 62.0641 67.8909 61.9171 66.4689 61.5121L66.1479 64.3621C66.1479 64.3621 67.5279 66.3241 67.2549 67.6141C66.9819 68.9041 64.2249 68.7391 62.4969 67.2541C61.4568 66.341 60.7902 65.0762 60.6249 63.7021L60.9249 57.1621C60.9249 57.1621 59.9139 57.9961 58.6119 57.0151C57.3849 56.0911 57.3279 53.6521 58.3659 52.8151C59.4039 51.9781 61.0659 52.4761 61.2909 53.8231C61.2909 53.8231 64.5069 54.5671 67.3539 53.2231C70.9869 51.5191 71.5179 49.0501 71.7489 47.7001Z" fill="#FFA8A7"/>
<path d="M61.3507 55.62L61.2637 52.644C61.668 52.6429 62.0571 52.7986 62.3491 53.0783C62.6411 53.358 62.8134 53.74 62.8297 54.144C62.8329 54.339 62.7969 54.5327 62.7237 54.7134C62.6505 54.8942 62.5416 55.0583 62.4035 55.1961C62.2655 55.3338 62.1012 55.4424 61.9203 55.5152C61.7394 55.588 61.5456 55.6237 61.3507 55.62Z" fill="#263238"/>
<path d="M67.8548 58.3141L69.4748 59.0401C69.4314 59.1489 69.3667 59.2479 69.2844 59.3313C69.2021 59.4146 69.1039 59.4806 68.9957 59.5254C68.8875 59.5701 68.7713 59.5927 68.6542 59.5918C68.5371 59.5909 68.4213 59.5665 68.3138 59.5201C68.0961 59.4175 67.9267 59.2345 67.8411 59.0096C67.7555 58.7848 67.7604 58.5354 67.8548 58.3141Z" fill="#F28F8F"/>
<path d="M72.5643 54.255C72.5644 54.3369 72.5478 54.418 72.5154 54.4933C72.483 54.5685 72.4356 54.6363 72.376 54.6925C72.3164 54.7488 72.246 54.7922 72.169 54.8201C72.092 54.8481 72.0101 54.8599 71.9283 54.855C71.7661 54.8413 71.6159 54.7638 71.5108 54.6395C71.4056 54.5152 71.354 54.3543 71.3673 54.192C71.3776 54.0329 71.4508 53.8844 71.5706 53.7792C71.6299 53.7271 71.699 53.6872 71.7737 53.6618C71.8485 53.6364 71.9275 53.6259 72.0063 53.631C72.0851 53.6361 72.1621 53.6567 72.2329 53.6916C72.3038 53.7265 72.367 53.775 72.4191 53.8343C72.4712 53.8937 72.5111 53.9627 72.5365 54.0374C72.562 54.1122 72.5724 54.1912 72.5673 54.27L72.5643 54.255Z" fill="#263238"/>
<path d="M68.2181 54.6001C68.2055 54.7169 68.159 54.8274 68.0842 54.918C68.0094 55.0086 67.9097 55.0752 67.7974 55.1097C67.6852 55.1441 67.5652 55.1448 67.4525 55.1118C67.3398 55.0787 67.2393 55.0133 67.1635 54.9236C67.0876 54.8339 67.0397 54.724 67.0257 54.6074C67.0118 54.4907 67.0323 54.3726 67.0849 54.2676C67.1375 54.1625 67.2197 54.0752 67.3214 54.0165C67.4231 53.9577 67.5398 53.9301 67.6571 53.9371C67.7381 53.9419 67.8173 53.9631 67.89 53.9995C67.9626 54.0358 68.0271 54.0865 68.0795 54.1485C68.132 54.2105 68.1713 54.2824 68.1951 54.3601C68.2189 54.4377 68.2267 54.5194 68.2181 54.6001Z" fill="#263238"/>
<path d="M69.958 54.2161L70.066 57.8311L71.968 57.2371L69.958 54.2161Z" fill="#F28F8F"/>
<path d="M66.4686 61.5001C65.2686 61.2271 62.9406 60.2221 62.4966 59.3491C62.4966 59.3491 62.4546 59.9071 63.1626 60.7501C63.8706 61.5931 66.3636 62.4241 66.3636 62.4241L66.4686 61.5001Z" fill="#F28F8F"/>
<path d="M72.7562 52.6441L71.4092 52.0621C71.4931 51.8821 71.6429 51.7413 71.8278 51.6687C72.0126 51.5961 72.2182 51.5973 72.4022 51.6721C72.4906 51.7111 72.5702 51.7676 72.6362 51.8381C72.7022 51.9087 72.7533 51.9919 72.7863 52.0827C72.8194 52.1734 72.8338 52.27 72.8286 52.3664C72.8234 52.4629 72.7988 52.5574 72.7562 52.6441Z" fill="#263238"/>
<path d="M64.6895 89.5291L67.6175 83.9281C68.5895 84.0691 69.5615 84.2041 70.5335 84.3391C72.4685 84.6061 79.7795 85.5031 80.1934 85.5091C81.0006 85.4963 81.797 85.3229 82.5364 84.9991C83.6944 84.5641 84.5525 83.8681 85.4885 83.6761C85.922 83.5906 86.3659 83.5704 86.8055 83.6161C87.3605 83.6551 87.2165 83.9521 87.7655 84.0481C87.9229 84.0622 88.073 84.1216 88.1975 84.2191C88.4075 84.4171 88.2544 84.5371 88.1434 84.6991C88.0257 84.904 87.9502 85.1305 87.9215 85.3651C87.8795 85.5661 87.7145 86.2501 87.9995 86.3611C89.3825 86.8981 89.5385 87.6901 91.3325 89.2291C92.1905 89.9641 92.6525 90.4951 93.2315 90.8701C93.5945 91.4191 93.6215 91.7701 92.3315 92.5261C91.4735 93.0361 89.9314 94.0261 87.4085 93.2341C84.6604 92.3731 83.2535 90.8341 82.5455 90.8011C77.5235 90.5191 67.4225 90.1021 64.6895 89.5291Z" fill="#FFA8A7"/>
<path d="M67.618 83.9281L60.22 71.7991C60.22 71.7991 59.005 65.0221 55.99 64.7881C55.99 64.7881 53.23 65.4991 52.6 67.1551C51.841 69.1591 51.877 71.1211 54.142 75.5551C55.852 78.9151 60.487 85.2481 62.341 87.3931C63.091 88.2601 63.91 89.2771 64.69 89.5171" fill="#FFA8A7"/>
<path d="M82.636 90.8101C82.9196 90.8815 83.1838 91.0147 83.41 91.2001C83.8727 91.117 84.3041 90.9096 84.658 90.6001C86.044 89.5891 90.808 91.6201 89.635 92.9251C88.783 93.8731 87.952 94.1251 86.593 93.7021C84.589 93.0901 82.453 92.1751 82.636 90.8101Z" fill="#EF9897"/>
<path d="M87.256 83.784C85.678 84.057 84.04 85.209 83.185 85.557C82.33 85.905 81.448 86.112 82.234 86.865C83.02 87.618 84.934 86.865 86.257 86.397C87.157 86.073 88.294 86.397 88.801 86.607C89.173 86.76 88.975 85.755 88.975 85.755C88.675 85.317 92.398 85.755 92.275 85.323C90.307 85.407 88.528 83.493 87.256 83.784Z" fill="#EF9897"/>
</g>
<defs>
<clipPath id="clip0_0_1">
<rect width="390" height="150" fill="white"/>
</clipPath>
</defs>
</svg>
