<svg width="390" height="150" viewBox="0 0 390 150" fill="none" xmlns="http://www.w3.org/2000/svg">
<rect width="390" height="150" fill="#F5F5F5" style="fill:#F5F5F5;fill:color(display-p3 0.9608 0.9608 0.9608);fill-opacity:1;"/>
<rect width="1701" height="2160" transform="translate(-470 -585)" fill="white" style="fill:white;fill:white;fill-opacity:1;"/>
<g clip-path="url(#clip0_0_1)">
<rect width="390" height="150" fill="#7F59D0" style="fill:#7F59D0;fill:color(display-p3 0.4997 0.3505 0.8167);fill-opacity:1;"/>
<path d="M36.4219 36.3594V39.9531H38.5156V40.9844H36.4219V44.3281H35.2031V36.3594H36.4219ZM32.6406 37.2656C32.6406 40.7812 30.1875 43.2344 26.0625 44.3125L25.5938 43.3125C29.0547 42.4141 31.0859 40.5859 31.3125 38.2812H26.2031V37.2656H32.6406ZM36.6719 45.0156V46H32.7344C32.8047 47.5469 34.8984 48.9141 37.2031 49.2812L36.7344 50.2344C34.6953 49.8906 32.8672 48.8594 32.0938 47.4219C31.3203 48.8594 29.4844 49.8828 27.4688 50.2344L26.9844 49.2656C29.3047 48.9141 31.3672 47.5781 31.4531 46H27.5156V45.0156H36.6719ZM50.3313 37.7812V39.1719C50.3156 40.875 50.3156 42.7812 49.8156 45.5781L48.5656 45.4375C49.0969 42.7812 49.0969 40.8281 49.0969 39.1719V38.7969H40.5344V37.7812H50.3313ZM51.8469 47.2812V48.2969H39.1906V47.2812H44.1594V42.3125H45.3625V47.2812H51.8469ZM64.2875 36.3906V44.1094H63.0688V36.3906H64.2875ZM57.7406 38.2656C57.725 40.1875 59.225 41.9219 61.2875 42.5938L60.6938 43.5625C59.0531 43.0078 57.7563 41.8516 57.1313 40.3438C56.5063 41.9609 55.1938 43.2266 53.5375 43.8125L52.9125 42.8438C55.0063 42.1094 56.4906 40.2812 56.4906 38.2656V36.9062H57.7406V38.2656ZM64.3813 44.9375V45.9375H62.4594V49.0781H64.5219V50.0781H54.9125V49.0781H56.9906V45.9375H55.0375V44.9375H64.3813ZM58.1938 49.0781H61.2406V45.9375H58.1938V49.0781ZM79.1031 43.7031V44.7031H66.4469V43.7031H79.1031ZM77.6969 48.9375V49.9688H68.0875V45.9219H69.3219V48.9375H77.6969ZM72.775 36.875C75.7594 36.8594 77.6813 37.8906 77.6813 39.625C77.6813 41.3594 75.7594 42.3906 72.775 42.3906C69.7594 42.3906 67.8531 41.3594 67.8531 39.625C67.8531 37.8906 69.7594 36.8594 72.775 36.875ZM72.775 37.8594C70.5406 37.8594 69.1031 38.5312 69.1188 39.625C69.1031 40.7188 70.5406 41.3906 72.775 41.3906C74.9938 41.3906 76.4313 40.7188 76.4313 39.625C76.4313 38.5312 74.9938 37.8594 72.775 37.8594ZM96.7188 41.8594V43.4375H91.2188V44.3438H95.1406V47.9844H87.2188V48.8438H95.5156V50.3438H85.2656V46.5781H93.1719V45.8438H85.25V44.3438H89.2188V43.4375H83.75V41.8594H96.7188ZM95.0781 36.625V41.1094H85.3594V36.625H95.0781ZM87.3125 38.1719V39.5781H93.0938V38.1719H87.3125ZM109.363 36.2344V46.625H107.378V41.9844H104.831V40.3438H107.378V36.2344H109.363ZM104.956 37.2812C104.956 41.0938 102.534 43.9062 98.3781 45.2031L97.5656 43.625C100.511 42.7031 102.409 41.0078 102.784 38.9062H98.3V37.2812H104.956ZM109.722 48.5938V50.1875H99.9875V45.5781H102.019V48.5938H109.722ZM117.475 36.625C120.569 36.625 122.381 37.4688 122.381 39.0156C122.381 40.5938 120.569 41.4375 117.475 41.4531C114.381 41.4375 112.553 40.5938 112.553 39.0156C112.553 37.4688 114.381 36.625 117.475 36.625ZM117.475 37.5469C115.162 37.5469 113.819 38.1094 113.834 39.0156C113.819 39.9844 115.162 40.5156 117.475 40.5156C119.772 40.5156 121.131 39.9844 121.131 39.0156C121.131 38.1094 119.772 37.5469 117.475 37.5469ZM123.803 42.3906V43.3906H111.147V42.3906H123.803ZM122.178 44.5938V47.7031H113.928V49.1406H122.6V50.1094H112.709V46.7969H120.975V45.5312H112.678V44.5938H122.178ZM130.387 36.9688V38.9688H134.434V36.9688H135.653V43.0156H129.184V36.9688H130.387ZM130.387 42.0156H134.434V39.9219H130.387V42.0156ZM139.45 36.375V39.3906H141.544V40.4219H139.45V43.5625H138.231V36.375H139.45ZM139.45 44.2188V47.5781H131.825V49.1094H139.966V50.1094H130.622V46.6406H138.231V45.2031H130.591V44.2188H139.45ZM153.734 36.3906V46.75H152.5V43.3906H148.766V42.375H152.5V40.2656H148.953C147.977 42.4609 145.844 44.1328 143 45.0469L142.453 44.0625C145.703 42.9922 147.938 40.9922 148.203 38.4844H143.141V37.4688H149.547C149.547 38.0938 149.461 38.6953 149.312 39.2656H152.5V36.3906H153.734ZM154.094 48.9375V49.9688H144.891V45.7188H146.141V48.9375H154.094ZM166.597 36.375V42.1094H168.925V43.125H166.597V50.2656H165.378V36.375H166.597ZM164.034 38.6094V39.625H155.769V38.6094H159.347V36.5469H160.566V38.6094H164.034ZM159.972 40.7812C161.941 40.7812 163.363 42.0938 163.378 43.9688C163.363 45.8438 161.941 47.1562 159.972 47.1562C157.988 47.1562 156.55 45.8438 156.566 43.9688C156.55 42.0938 157.988 40.7812 159.972 40.7812ZM159.972 41.8125C158.675 41.8125 157.722 42.7188 157.738 43.9688C157.722 45.2344 158.675 46.125 159.972 46.1094C161.253 46.125 162.191 45.2344 162.206 43.9688C162.191 42.7188 161.253 41.8125 159.972 41.8125ZM176.506 37.5938V38.8281H179.756V36.3906H180.991V46.5312H179.756V42.8281H176.506V44.0781H170.131V37.5938H176.506ZM171.35 38.6094V43.0938H175.303V38.6094H171.35ZM181.303 48.9375V49.9688H172.006V45.625H173.241V48.9375H181.303ZM176.506 41.8125H179.756V39.8594H176.506V41.8125ZM36.3125 65.375V71.0312H38.5625V72.0625H36.3125V79.2656H35.0938V65.375H36.3125ZM32.7188 66.875C32.7188 70.8125 30.875 74.3906 26.3438 76.625L25.6562 75.6562C29.25 73.8672 31.2031 71.1953 31.4844 67.9062H26.2969V66.875H32.7188ZM44.1594 69.6406C44.1594 72 45.8781 74.3906 47.925 75.2812L47.2375 76.25C45.6125 75.5078 44.2063 73.9062 43.5656 71.9844C42.9094 74.0234 41.5109 75.7969 39.925 76.5938L39.1906 75.625C41.175 74.6719 42.9094 72.0469 42.925 69.6406V67.8281H39.6438V66.8125H47.4719V67.8281H44.1594V69.6406ZM50.6438 65.375V79.2656H49.4094V65.375H50.6438ZM63.9594 66.7812V68.1719C63.9438 69.875 63.9438 71.7812 63.4438 74.5781L62.1938 74.4375C62.725 71.7812 62.725 69.8281 62.725 68.1719V67.7969H54.1625V66.7812H63.9594ZM65.475 76.2812V77.2969H52.8188V76.2812H57.7875V71.3125H58.9906V76.2812H65.475ZM74.9656 74.7031C74.9656 75.9297 75.6219 77.2344 76.95 77.9844C78.2625 77.1641 78.9656 75.7812 78.9656 74.7031V73.9375H80.1688V74.7031C80.1688 76.125 81.2156 77.5625 82.9969 78.1719L82.3875 79.0781C80.9969 78.5859 80.0203 77.6172 79.5438 76.4531C79.1141 77.5781 78.2625 78.6406 76.9813 79.1875C75.6297 78.6719 74.7703 77.6484 74.3563 76.4844C73.8641 77.6094 72.9031 78.5781 71.575 79.0781L70.95 78.1719C72.7 77.5156 73.7625 76.0312 73.7781 74.7031V73.9375H74.9656V74.7031ZM81.7313 65.3906V73.3281H80.5125V65.3906H81.7313ZM74.2313 66.2031C76.3406 66.2031 77.8719 67.5156 77.8719 69.4531C77.8719 71.3594 76.3406 72.6719 74.2313 72.6719C72.1219 72.6719 70.5906 71.3594 70.5906 69.4531C70.5906 67.5156 72.1219 66.2031 74.2313 66.2031ZM74.2313 67.25C72.8094 67.2344 71.7781 68.1562 71.7938 69.4531C71.7781 70.7344 72.8094 71.6406 74.2313 71.6562C75.6375 71.6406 76.6688 70.7344 76.6688 69.4531C76.6688 68.1562 75.6375 67.2344 74.2313 67.25ZM95.125 69.5938V70.5781H85.6094V65.8906H86.8281V69.5938H95.125ZM96.5938 72.4688V73.4688H83.875V72.4688H96.5938ZM95.2031 77.9062V78.9219H85.5312V74.8906H86.75V77.9062H95.2031ZM114.162 70.8594V72.4375H108.662V73.3438H112.584V76.9844H104.662V77.8438H112.959V79.3438H102.709V75.5781H110.616V74.8438H102.694V73.3438H106.662V72.4375H101.194V70.8594H114.162ZM112.522 65.625V70.1094H102.803V65.625H112.522ZM104.756 67.1719V68.5781H110.537V67.1719H104.756ZM126.806 65.2344V75.625H124.822V70.9844H122.275V69.3438H124.822V65.2344H126.806ZM122.4 66.2812C122.4 70.0938 119.978 72.9062 115.822 74.2031L115.009 72.625C117.955 71.7031 119.853 70.0078 120.228 67.9062H115.744V66.2812H122.4ZM127.166 77.5938V79.1875H117.431V74.5781H119.463V77.5938H127.166ZM134.919 66.2812C137.825 66.2812 139.997 67.7969 139.997 70.0938C139.997 72.4062 137.825 73.9219 134.919 73.9062C132.012 73.9219 129.841 72.4062 129.841 70.0938C129.841 67.7969 132.012 66.2812 134.919 66.2812ZM134.919 67.2812C132.684 67.2656 130.997 68.4375 131.012 70.0938C130.997 71.7812 132.684 72.9062 134.919 72.9062C137.137 72.9062 138.809 71.7812 138.809 70.0938C138.809 68.4375 137.137 67.2656 134.919 67.2812ZM141.309 76.3906V77.4219H128.591V76.3906H141.309ZM154.938 76.5156V77.5469H142.219V76.5156H147.938V73.8906H143.812V69.6094H152.125V67.4219H143.781V66.4062H153.328V70.6094H145.031V72.875H153.656V73.8906H149.141V76.5156H154.938ZM31.8906 95.2812C34.8438 95.2969 36.9688 96.7344 36.9688 98.9219C36.9688 100.992 35.125 102.367 32.4844 102.531V105.453H38.2812V106.484H25.5625V105.453H31.2812V102.531C28.6484 102.359 26.8125 100.984 26.8125 98.9219C26.8125 96.7344 28.9375 95.2969 31.8906 95.2812ZM31.8906 96.2969C29.6406 96.2969 28 97.3594 28 98.9219C28 100.531 29.6406 101.562 31.8906 101.578C34.1406 101.562 35.7812 100.531 35.7812 98.9219C35.7812 97.3594 34.1406 96.2969 31.8906 96.2969ZM47.2531 95.8438V96.875H45.6438V103.594C46.3469 103.555 47.0344 103.492 47.6906 103.422L47.7688 104.328C44.925 104.766 41.6438 104.828 39.2063 104.828L39.0813 103.781C39.6594 103.781 40.2922 103.773 40.9563 103.766V96.875H39.5188V95.8438H47.2531ZM50.7063 94.375V108.266H49.4875V100.641H46.7688V99.625H49.4875V94.375H50.7063ZM42.1594 103.734C42.9094 103.727 43.6828 103.703 44.4563 103.656V96.875H42.1594V103.734ZM65.5219 100.828V101.797H52.8031V100.828H65.5219ZM63.9281 102.906V105.859H55.5844V107.188H64.3813V108.078H54.35V105.016H62.7094V103.828H54.3344V102.906H63.9281ZM63.8813 94.7969V97.6719H55.6781V98.8906H64.1313V99.7812H54.4594V96.8281H62.6469V95.6875H54.4125V94.7969H63.8813ZM82.1375 94.375V108.266H80.9656V94.375H82.1375ZM79.325 94.7188V107.547H78.1688V100.391H75.825V99.3906H78.1688V94.7188H79.325ZM74.3406 98.3438C74.3406 100.75 75.4188 103.141 77.3406 104.25L76.5906 105.156C75.2234 104.336 74.2547 102.836 73.7781 101.062C73.2703 102.977 72.2625 104.609 70.8719 105.484L70.0906 104.562C72.0281 103.406 73.1531 100.875 73.1531 98.3438V97.0312H70.4813V96.0156H76.8875V97.0312H74.3406V98.3438ZM94.75 94.375V98.6094H96.8438V99.6406H94.75V104.625H93.5312V94.375H94.75ZM95.3906 106.938V107.969H86.0625V103.562H87.2656V106.938H95.3906ZM87.7969 95.3594C89.875 95.3594 91.4375 96.7656 91.4531 98.7812C91.4375 100.797 89.875 102.203 87.7969 102.203C85.7188 102.203 84.1406 100.797 84.1562 98.7812C84.1406 96.7656 85.7188 95.3594 87.7969 95.3594ZM87.7969 96.4375C86.4219 96.4375 85.3438 97.4062 85.3594 98.7812C85.3438 100.156 86.4219 101.125 87.7969 101.125C89.2031 101.125 90.25 100.156 90.25 98.7812C90.25 97.4062 89.2031 96.4375 87.7969 96.4375ZM104.456 96.7812V97.7812H97.4875V96.7812H100.378V94.7969H101.597V96.7812H104.456ZM100.972 98.7188C102.722 98.7188 103.972 100.031 103.988 101.875C103.972 103.734 102.722 105.062 100.972 105.062C99.2375 105.062 97.9875 103.734 97.9875 101.875C97.9875 100.031 99.2375 98.7188 100.972 98.7188ZM100.972 99.75C99.8781 99.7656 99.0813 100.656 99.0813 101.875C99.0813 103.109 99.8781 104 100.972 103.984C102.081 104 102.894 103.109 102.894 101.875C102.894 100.656 102.081 99.7656 100.972 99.75ZM109.347 94.375V108.266H108.175V101.25H106.331V107.578H105.175V94.7188H106.331V100.234H108.175V94.375H109.347ZM123.866 105.469V106.484H111.147V105.469H116.866V102.469H112.647V95.3594H113.881V97.875H121.1V95.3594H122.303V102.469H118.069V105.469H123.866ZM113.881 101.469H121.1V98.875H113.881V101.469ZM128.9 98.3281C128.9 100.531 129.978 102.922 131.822 104.016L131.119 104.969C129.783 104.156 128.822 102.672 128.338 100.984C127.822 102.828 126.791 104.414 125.4 105.266L124.619 104.344C126.541 103.219 127.713 100.75 127.713 98.375V95.6875H128.9V98.3281ZM136.681 94.375V108.266H135.494V94.375H136.681ZM133.806 94.6719V107.562H132.65V100.406H130.291V99.3594H132.65V94.6719H133.806ZM151.122 105.453V106.484H138.403V105.453H141.559V101.703C140.372 101.086 139.653 100.086 139.653 98.8281C139.653 96.6719 141.762 95.2656 144.731 95.25C147.7 95.2656 149.809 96.6719 149.809 98.8281C149.809 100.062 149.114 101.055 147.966 101.672V105.453H151.122ZM144.731 96.2656C142.45 96.25 140.841 97.2812 140.841 98.8281C140.841 100.375 142.45 101.422 144.731 101.422C146.997 101.422 148.622 100.375 148.622 98.8281C148.622 97.2812 146.997 96.25 144.731 96.2656ZM142.762 105.453H146.731V102.141C146.13 102.305 145.458 102.391 144.731 102.391C144.02 102.391 143.356 102.312 142.762 102.156V105.453ZM154.281 95.6875L154.172 103.812H152.859L152.75 95.6875H154.281ZM153.516 107.094C152.969 107.094 152.5 106.641 152.516 106.078C152.5 105.531 152.969 105.078 153.516 105.078C154.062 105.078 154.516 105.531 154.516 106.078C154.516 106.641 154.062 107.094 153.516 107.094Z" fill="white" style="fill:white;fill:white;fill-opacity:1;"/>
<path d="M350 117.072H210V117.142H350V117.072Z" fill="#EBEBEB" style="fill:#EBEBEB;fill:color(display-p3 0.9216 0.9216 0.9216);fill-opacity:1;"/>
<path d="M233.962 121.577H224.688V121.647H233.962V121.577Z" fill="#EBEBEB" style="fill:#EBEBEB;fill:color(display-p3 0.9216 0.9216 0.9216);fill-opacity:1;"/>
<path d="M260.353 122.339H247.893V122.409H260.353V122.339Z" fill="#EBEBEB" style="fill:#EBEBEB;fill:color(display-p3 0.9216 0.9216 0.9216);fill-opacity:1;"/>
<path d="M253.96 118.979H234.242V119.049H253.96V118.979Z" fill="#EBEBEB" style="fill:#EBEBEB;fill:color(display-p3 0.9216 0.9216 0.9216);fill-opacity:1;"/>
<path d="M335.972 119.449H332.419V119.519H335.972V119.449Z" fill="#EBEBEB" style="fill:#EBEBEB;fill:color(display-p3 0.9216 0.9216 0.9216);fill-opacity:1;"/>
<path d="M329.924 119.449H319.611V119.519H329.924V119.449Z" fill="#EBEBEB" style="fill:#EBEBEB;fill:color(display-p3 0.9216 0.9216 0.9216);fill-opacity:1;"/>
<path d="M296.333 120.631H287.619V120.701H296.333V120.631Z" fill="#EBEBEB" style="fill:#EBEBEB;fill:color(display-p3 0.9216 0.9216 0.9216);fill-opacity:1;"/>
<path d="M290.643 114.625C299.451 114.625 306.592 107.484 306.592 98.676C306.592 89.8677 299.451 82.7272 290.643 82.7272C281.835 82.7272 274.694 89.8677 274.694 98.676C274.694 107.484 281.835 114.625 290.643 114.625Z" fill="#FAFAFA" style="fill:#FAFAFA;fill:color(display-p3 0.9804 0.9804 0.9804);fill-opacity:1;"/>
<path d="M297.579 101.809C268.918 104.021 223.751 117.072 223.751 117.072H336.311C340.069 113.32 328.191 99.4432 297.579 101.809Z" fill="#F0F0F0" style="fill:#F0F0F0;fill:color(display-p3 0.9412 0.9412 0.9412);fill-opacity:1;"/>
<path d="M308.859 94.9016L306.18 104.189H311.539L308.859 94.9016Z" fill="#F5F5F5" style="fill:#F5F5F5;fill:color(display-p3 0.9608 0.9608 0.9608);fill-opacity:1;"/>
<path d="M302.532 96.6824L300.454 103.878H304.609L302.532 96.6824Z" fill="#F5F5F5" style="fill:#F5F5F5;fill:color(display-p3 0.9608 0.9608 0.9608);fill-opacity:1;"/>
<path d="M316.221 97.318L314.144 104.514H318.299L316.221 97.318Z" fill="#F5F5F5" style="fill:#F5F5F5;fill:color(display-p3 0.9608 0.9608 0.9608);fill-opacity:1;"/>
<path d="M311.97 99.88L309.893 107.076H314.048L311.97 99.88Z" fill="#F5F5F5" style="fill:#F5F5F5;fill:color(display-p3 0.9608 0.9608 0.9608);fill-opacity:1;"/>
<path d="M296.54 96.8953L293.86 106.183H299.22L296.54 96.8953Z" fill="#F5F5F5" style="fill:#F5F5F5;fill:color(display-p3 0.9608 0.9608 0.9608);fill-opacity:1;"/>
<path d="M290.211 98.676L288.134 105.872H292.289L290.211 98.676Z" fill="#F5F5F5" style="fill:#F5F5F5;fill:color(display-p3 0.9608 0.9608 0.9608);fill-opacity:1;"/>
<path d="M299.483 101.54L297.405 108.734H301.56L299.483 101.54Z" fill="#F5F5F5" style="fill:#F5F5F5;fill:color(display-p3 0.9608 0.9608 0.9608);fill-opacity:1;"/>
<path d="M283.341 100.591L281.675 106.368H285.01L283.341 100.591Z" fill="#F5F5F5" style="fill:#F5F5F5;fill:color(display-p3 0.9608 0.9608 0.9608);fill-opacity:1;"/>
<path d="M276.48 102.028L274.686 108.246H278.275L276.48 102.028Z" fill="#F5F5F5" style="fill:#F5F5F5;fill:color(display-p3 0.9608 0.9608 0.9608);fill-opacity:1;"/>
<path d="M269.62 103.293L267.954 109.07H271.289L269.62 103.293Z" fill="#F5F5F5" style="fill:#F5F5F5;fill:color(display-p3 0.9608 0.9608 0.9608);fill-opacity:1;"/>
<path d="M280 105.802L278.477 111.074H281.523L280 105.802Z" fill="#F5F5F5" style="fill:#F5F5F5;fill:color(display-p3 0.9608 0.9608 0.9608);fill-opacity:1;"/>
<path d="M264.765 105.712L263.586 109.798H265.946L264.765 105.712Z" fill="#F5F5F5" style="fill:#F5F5F5;fill:color(display-p3 0.9608 0.9608 0.9608);fill-opacity:1;"/>
<path d="M289.464 108.44L288.285 112.525H290.643L289.464 108.44Z" fill="#F5F5F5" style="fill:#F5F5F5;fill:color(display-p3 0.9608 0.9608 0.9608);fill-opacity:1;"/>
<path d="M271.404 110.078L270.226 114.163H272.583L271.404 110.078Z" fill="#F5F5F5" style="fill:#F5F5F5;fill:color(display-p3 0.9608 0.9608 0.9608);fill-opacity:1;"/>
<path d="M306.476 106.205L304.953 111.478H307.997L306.476 106.205Z" fill="#F5F5F5" style="fill:#F5F5F5;fill:color(display-p3 0.9608 0.9608 0.9608);fill-opacity:1;"/>
<path d="M258.067 106.799L256.889 110.884H259.246L258.067 106.799Z" fill="#F5F5F5" style="fill:#F5F5F5;fill:color(display-p3 0.9608 0.9608 0.9608);fill-opacity:1;"/>
<path d="M261.416 109.38L260.237 113.466H262.598L261.416 109.38Z" fill="#F5F5F5" style="fill:#F5F5F5;fill:color(display-p3 0.9608 0.9608 0.9608);fill-opacity:1;"/>
<path d="M253.198 108.44L252.252 111.718H254.145L253.198 108.44Z" fill="#F5F5F5" style="fill:#F5F5F5;fill:color(display-p3 0.9608 0.9608 0.9608);fill-opacity:1;"/>
<path d="M248.357 109.658L247.338 113.188H249.376L248.357 109.658Z" fill="#F5F5F5" style="fill:#F5F5F5;fill:color(display-p3 0.9608 0.9608 0.9608);fill-opacity:1;"/>
<path d="M242.284 110.481L241.338 113.762H243.231L242.284 110.481Z" fill="#F5F5F5" style="fill:#F5F5F5;fill:color(display-p3 0.9608 0.9608 0.9608);fill-opacity:1;"/>
<path d="M241.752 44.16H269.402C269.402 44.16 271.245 32.3076 260.98 36.1324C260.98 36.1324 259.112 25.12 247.82 31.9324C236.527 38.7448 238.952 44.16 241.752 44.16Z" fill="#FAFAFA" style="fill:#FAFAFA;fill:color(display-p3 0.9804 0.9804 0.9804);fill-opacity:1;"/>
<path d="M325.509 50.8212C325.509 50.8212 323.381 36.8016 310.932 47.4612C310.932 47.4612 306.345 42.7628 298.928 52.3976C298.928 52.3976 297.691 47.6684 292.295 51.3C288.921 53.5736 288.143 58.0368 288.143 58.0368H327.547C327.547 58.0368 333.265 48.7072 325.509 50.8212Z" fill="#FAFAFA" style="fill:#FAFAFA;fill:color(display-p3 0.9804 0.9804 0.9804);fill-opacity:1;"/>
<path d="M239.613 62.4272C239.613 62.4272 238.708 56.4744 233.425 60.9992C233.425 60.9992 231.465 59.0028 228.329 63.0936C228.329 63.0936 227.802 61.086 225.529 62.626C224.095 63.592 223.765 65.4876 223.765 65.4876H240.492C240.492 65.4876 242.903 61.52 239.613 62.4272Z" fill="#FAFAFA" style="fill:#FAFAFA;fill:color(display-p3 0.9804 0.9804 0.9804);fill-opacity:1;"/>
<path d="M280 129.717C309.983 129.717 334.289 128.298 334.289 126.547C334.289 124.797 309.983 123.378 280 123.378C250.017 123.378 225.711 124.797 225.711 126.547C225.711 128.298 250.017 129.717 280 129.717Z" fill="#F5F5F5" style="fill:#F5F5F5;fill:color(display-p3 0.9608 0.9608 0.9608);fill-opacity:1;"/>
<path d="M242.155 109.61H277.547C277.97 109.614 278.389 109.531 278.778 109.364C279.167 109.198 279.518 108.953 279.807 108.645C280.097 108.337 280.319 107.971 280.46 107.573C280.601 107.174 280.658 106.75 280.627 106.328L276.811 44.4399C276.744 43.5571 276.349 42.7312 275.705 42.1241C275.061 41.517 274.213 41.1726 273.328 41.1583H237.933C237.51 41.1545 237.091 41.2384 236.702 41.4046C236.313 41.5709 235.963 41.8159 235.674 42.1242C235.384 42.4325 235.162 42.7975 235.021 43.1961C234.879 43.5946 234.822 44.0182 234.853 44.4399L238.672 106.32C238.736 107.205 239.129 108.033 239.774 108.643C240.418 109.252 241.268 109.597 242.155 109.61Z" fill="#263238" style="fill:#263238;fill:color(display-p3 0.1490 0.1961 0.2196);fill-opacity:1;"/>
<path d="M236.04 63.48H236.555C236.648 63.481 236.74 63.4627 236.826 63.4262C236.912 63.3896 236.989 63.3357 237.052 63.2678C237.116 63.1999 237.165 63.1194 237.196 63.0316C237.227 62.9438 237.239 62.8505 237.232 62.7576L236.656 53.4252C236.642 53.2305 236.555 53.0482 236.413 52.9144C236.271 52.7806 236.084 52.7051 235.888 52.7028H235.387C235.294 52.7018 235.201 52.7201 235.116 52.7566C235.03 52.7931 234.953 52.847 234.889 52.9149C234.825 52.9828 234.776 53.0632 234.744 53.151C234.713 53.2388 234.7 53.3322 234.707 53.4252L235.284 62.7576C235.298 62.9502 235.383 63.1305 235.523 63.2639C235.662 63.3973 235.847 63.4743 236.04 63.48Z" fill="#263238" style="fill:#263238;fill:color(display-p3 0.1490 0.1961 0.2196);fill-opacity:1;"/>
<path d="M277.424 57.5243H278.04C278.13 57.525 278.219 57.5069 278.302 57.4714C278.385 57.4358 278.459 57.3835 278.521 57.3178C278.582 57.252 278.629 57.1742 278.659 57.0893C278.689 57.0044 278.702 56.9142 278.695 56.8243L278.44 52.8399C278.427 52.6515 278.343 52.4749 278.206 52.3452C278.068 52.2155 277.887 52.1423 277.698 52.1399H277.093C277.003 52.1389 276.914 52.1567 276.83 52.192C276.747 52.2274 276.672 52.2797 276.611 52.3455C276.549 52.4113 276.501 52.4892 276.471 52.5743C276.441 52.6594 276.429 52.7499 276.435 52.8399L276.682 56.8243C276.696 57.0124 276.78 57.1882 276.918 57.3176C277.055 57.447 277.235 57.5207 277.424 57.5243Z" fill="#407BFF" style="fill:#407BFF;fill:color(display-p3 0.2510 0.4824 1.0000);fill-opacity:1;"/>
<path d="M277.863 64.642H278.471C278.561 64.6426 278.65 64.6246 278.733 64.589C278.816 64.5535 278.89 64.5012 278.952 64.4354C279.013 64.3697 279.06 64.2919 279.09 64.207C279.12 64.122 279.133 64.0318 279.126 63.942L278.88 59.9576C278.866 59.7691 278.783 59.5925 278.645 59.4629C278.508 59.3332 278.327 59.2599 278.138 59.2576H277.53C277.44 59.257 277.351 59.275 277.268 59.3105C277.185 59.3461 277.111 59.3984 277.049 59.4641C276.988 59.5299 276.94 59.6077 276.91 59.6926C276.88 59.7775 276.868 59.8678 276.875 59.9576L277.121 63.942C277.135 64.1302 277.219 64.3065 277.356 64.436C277.494 64.5655 277.674 64.639 277.863 64.642Z" fill="#407BFF" style="fill:#407BFF;fill:color(display-p3 0.2510 0.4824 1.0000);fill-opacity:1;"/>
<path d="M264.087 40.1868H260.016V40.4668H264.087V40.1868Z" fill="#407BFF" style="fill:#407BFF;fill:color(display-p3 0.2510 0.4824 1.0000);fill-opacity:1;"/>
<path d="M266.543 40.1868H265.361V40.4668H266.543V40.1868Z" fill="#407BFF" style="fill:#407BFF;fill:color(display-p3 0.2510 0.4824 1.0000);fill-opacity:1;"/>
<path d="M242.7 109.61H278.095C278.518 109.614 278.937 109.53 279.326 109.364C279.715 109.197 280.065 108.952 280.354 108.644C280.644 108.336 280.866 107.971 281.007 107.572C281.149 107.174 281.206 106.75 281.175 106.328L277.356 44.44C277.29 43.5567 276.896 42.73 276.252 42.1227C275.607 41.5153 274.758 41.1713 273.873 41.1584H238.481C238.058 41.1541 237.639 41.2377 237.25 41.4038C236.861 41.5699 236.51 41.8149 236.221 42.1233C235.931 42.4317 235.709 42.7969 235.568 43.1956C235.427 43.5944 235.37 44.0181 235.401 44.44L239.217 106.32C239.282 107.204 239.676 108.032 240.32 108.641C240.965 109.25 241.814 109.596 242.7 109.61Z" fill="#407BFF" style="fill:#407BFF;fill:color(display-p3 0.2510 0.4824 1.0000);fill-opacity:1;"/>
<path d="M239.94 105.872H280.398L276.643 45.0167H236.186L239.94 105.872Z" fill="white" style="fill:white;fill:white;fill-opacity:1;"/>
<path d="M274.584 74.96H273.151C272.398 67.0864 265.61 60.7248 257.72 60.5008L257.625 59.0644C257.616 58.9482 257.564 58.8396 257.479 58.7599C257.394 58.6801 257.282 58.6349 257.166 58.6332C257.11 58.6326 257.055 58.6436 257.004 58.6655C256.954 58.6874 256.908 58.7196 256.87 58.7602C256.832 58.8008 256.804 58.8489 256.786 58.9012C256.768 58.9536 256.761 59.0092 256.765 59.0644L256.86 60.5008C249.001 60.7248 243.065 67.0864 243.367 74.96H241.934C241.878 74.9594 241.823 74.9704 241.772 74.9923C241.721 75.0141 241.675 75.0464 241.637 75.0869C241.599 75.1275 241.57 75.1754 241.552 75.2278C241.533 75.2802 241.526 75.3358 241.53 75.3912C241.54 75.5074 241.592 75.616 241.677 75.6957C241.762 75.7755 241.873 75.8207 241.99 75.8224H243.426C244.176 83.696 250.964 90.0576 258.854 90.2816L258.949 91.718C258.958 91.8342 259.01 91.9428 259.095 92.0225C259.18 92.1023 259.292 92.1475 259.408 92.1492C259.464 92.1498 259.519 92.1388 259.57 92.1169C259.621 92.0951 259.667 92.0628 259.705 92.0223C259.743 91.9817 259.772 91.9338 259.79 91.8814C259.809 91.829 259.816 91.7734 259.812 91.718L259.714 90.2816C267.573 90.0576 273.509 83.696 273.207 75.8224H274.643C274.699 75.823 274.754 75.812 274.805 75.7901C274.855 75.7682 274.901 75.736 274.939 75.6954C274.977 75.6548 275.005 75.6067 275.023 75.5544C275.041 75.502 275.048 75.4464 275.044 75.3912C275.035 75.2748 274.983 75.1658 274.898 75.0859C274.813 75.0061 274.701 74.9611 274.584 74.96ZM259.658 89.422L259.562 88.008C259.553 87.8918 259.501 87.7832 259.416 87.7035C259.331 87.6237 259.22 87.5785 259.103 87.5768C259.048 87.5762 258.993 87.5872 258.942 87.6091C258.891 87.631 258.845 87.6632 258.808 87.7038C258.77 87.7444 258.741 87.7925 258.723 87.8448C258.705 87.8972 258.698 87.9528 258.703 88.008L258.795 89.422C251.381 89.198 245.005 83.2228 244.286 75.8224H245.686C245.741 75.823 245.796 75.812 245.847 75.7901C245.898 75.7682 245.944 75.736 245.981 75.6954C246.019 75.6548 246.048 75.6067 246.066 75.5544C246.084 75.502 246.091 75.4464 246.086 75.3912C246.078 75.2748 246.026 75.1658 245.941 75.0859C245.856 75.0061 245.744 74.9611 245.627 74.96H244.227C243.947 67.5596 249.53 61.5844 256.916 61.3604L257.009 62.7744C257.019 62.8903 257.071 62.9986 257.156 63.0782C257.24 63.1578 257.352 63.2032 257.468 63.2056C257.524 63.2062 257.579 63.1952 257.63 63.1733C257.681 63.1515 257.727 63.1192 257.765 63.0787C257.802 63.0381 257.832 62.9902 257.85 62.9378C257.868 62.8854 257.876 62.8297 257.871 62.7744L257.776 61.3604C265.19 61.5844 271.566 67.5596 272.286 74.96H270.872C270.816 74.9594 270.761 74.9704 270.71 74.9923C270.66 75.0142 270.614 75.0464 270.576 75.087C270.538 75.1276 270.51 75.1757 270.492 75.228C270.474 75.2804 270.467 75.336 270.471 75.3912C270.48 75.5074 270.532 75.616 270.617 75.6957C270.702 75.7755 270.814 75.8207 270.93 75.8224H272.33C272.619 83.22 267.041 89.1952 259.658 89.4192V89.422Z" fill="#E0E0E0" style="fill:#E0E0E0;fill:color(display-p3 0.8784 0.8784 0.8784);fill-opacity:1;"/>
<path d="M266.478 71.2108V71.1884C266.473 71.1729 266.466 71.1579 266.458 71.1435L266.439 71.1211C266.429 71.1093 266.419 71.0981 266.408 71.0876C266.401 71.0795 266.392 71.0729 266.383 71.068L266.358 71.0456L257.932 66.8316C257.893 66.8109 257.849 66.8002 257.804 66.8002C257.759 66.8002 257.715 66.8109 257.675 66.8316L249.703 71.04L249.678 71.0624C249.67 71.0681 249.662 71.0746 249.656 71.0819C249.646 71.0919 249.637 71.1032 249.63 71.1156L249.614 71.138C249.607 71.1524 249.601 71.1674 249.597 71.1827V71.2052C249.593 71.2302 249.593 71.2557 249.597 71.2808L250.118 80.3724C250.122 80.4249 250.139 80.4756 250.169 80.5193C250.198 80.563 250.238 80.5983 250.286 80.6216L258.711 84.8355C258.747 84.8541 258.788 84.8637 258.828 84.8635C258.869 84.8647 258.908 84.855 258.943 84.8355H258.957L266.898 80.6216C266.942 80.5975 266.979 80.5613 267.003 80.5171C267.028 80.4729 267.039 80.4227 267.035 80.3724L266.512 71.2808C266.504 71.2558 266.493 71.2321 266.478 71.2108ZM253.836 69.4944L261.631 73.3919L258.254 75.1868L250.456 71.2864L253.836 69.4944ZM257.806 67.4L265.602 71.3003L262.225 73.0924L254.427 69.1919L257.806 67.4ZM250.151 71.7456L257.991 75.6656L258.476 84.1271L250.636 80.2072L250.151 71.7456ZM266.444 80.2072L259.047 84.1271L258.562 75.6656L261.99 73.8484L262.085 75.4948C262.09 75.5675 262.12 75.6361 262.172 75.6876C262.224 75.7391 262.292 75.7701 262.365 75.7748C262.402 75.7772 262.44 75.7717 262.475 75.7585C262.51 75.7453 262.542 75.7247 262.568 75.6982C262.595 75.6717 262.615 75.6399 262.629 75.6048C262.642 75.5697 262.647 75.5322 262.645 75.4948L262.533 73.56L265.96 71.74L266.444 80.2072Z" fill="#407BFF" style="fill:#407BFF;fill:color(display-p3 0.2510 0.4824 1.0000);fill-opacity:1;"/>
<path opacity="0.2" d="M260.657 42.6843H251.884C251.846 42.6842 251.807 42.6921 251.772 42.7076C251.736 42.723 251.704 42.7457 251.678 42.7741C251.652 42.8025 251.632 42.8361 251.619 42.8727C251.606 42.9093 251.601 42.9481 251.604 42.9867V43.1883C251.611 43.2706 251.648 43.3475 251.708 43.4039C251.768 43.4604 251.847 43.4924 251.929 43.4935H260.707C260.746 43.4937 260.785 43.4857 260.821 43.4701C260.856 43.4545 260.888 43.4315 260.915 43.4028C260.941 43.3741 260.961 43.3402 260.974 43.3032C260.986 43.2663 260.991 43.2272 260.987 43.1883L260.973 42.9867C260.967 42.9062 260.931 42.8308 260.873 42.7749C260.815 42.7191 260.738 42.6869 260.657 42.6843Z" fill="black" style="fill:black;fill:black;fill-opacity:1;"/>
<path d="M307.494 62.8473L307.323 62.8837L307.183 62.9117L306.903 62.9537C306.727 62.9761 306.556 62.9957 306.385 63.0097C306.041 63.0377 305.705 63.0489 305.366 63.0489C304.694 63.0426 304.023 62.9799 303.361 62.8613C302.703 62.7455 302.055 62.577 301.424 62.3573C301.11 62.2481 300.799 62.1249 300.497 61.9877L300.267 61.8869L300.125 61.8197C300.035 61.7782 299.948 61.7305 299.864 61.6769C299.571 61.4877 299.324 61.2363 299.139 60.9405C298.893 60.5339 298.733 60.0813 298.669 59.6105C298.616 59.249 298.59 58.8839 298.593 58.5185C298.607 57.8658 298.672 57.2152 298.786 56.5725C298.997 55.3476 299.321 54.145 299.755 52.9801L301.259 53.3385C301.169 54.4837 301.082 55.6625 301.074 56.7825C301.063 57.3222 301.09 57.8619 301.152 58.3981C301.176 58.627 301.218 58.8537 301.278 59.0757C301.3 59.1969 301.354 59.31 301.435 59.4033C301.435 59.4033 301.413 59.3473 301.337 59.2913L301.273 59.2521C301.25 59.2521 301.273 59.2521 301.289 59.2521L301.337 59.2689L301.525 59.3277C301.771 59.4117 302.029 59.4733 302.281 59.5405C302.786 59.6686 303.3 59.7621 303.818 59.8205C304.332 59.8805 304.849 59.9086 305.366 59.9045C305.624 59.9045 305.881 59.9045 306.131 59.8765C306.257 59.8765 306.38 59.8541 306.5 59.8401L306.674 59.8205H306.752H306.797L307.494 62.8473Z" fill="#FFC3BD" style="fill:#FFC3BD;fill:color(display-p3 1.0000 0.7647 0.7412);fill-opacity:1;"/>
<path d="M299.645 53.6353L299.572 51.5381L301.65 51.3141C301.65 51.3141 302.092 53.4505 300.717 53.9909L299.645 53.6353Z" fill="#FFC3BD" style="fill:#FFC3BD;fill:color(display-p3 1.0000 0.7647 0.7412);fill-opacity:1;"/>
<path d="M300.093 50.3984L300.997 50.3452C301.136 50.338 301.272 50.3825 301.38 50.4699C301.487 50.5573 301.559 50.6815 301.58 50.8184L301.65 51.314L299.572 51.538V50.9528C299.573 50.8118 299.628 50.6764 299.724 50.5736C299.821 50.4709 299.952 50.4083 300.093 50.3984Z" fill="#FFC3BD" style="fill:#FFC3BD;fill:color(display-p3 1.0000 0.7647 0.7412);fill-opacity:1;"/>
<path d="M308.742 63.7433C307.311 65.0929 301.316 62.9425 301.316 62.9425L302.831 59.3193C304.253 59.0199 305.708 58.9051 307.16 58.9776C310.086 59.0924 310.313 62.2649 308.742 63.7433Z" fill="#407BFF" style="fill:#407BFF;fill:color(display-p3 0.2510 0.4824 1.0000);fill-opacity:1;"/>
<path d="M299.09 52.2493C299.258 52.9829 299.107 53.6157 298.754 53.6493C298.402 53.6829 297.979 53.1369 297.811 52.4033C297.643 51.6697 297.794 51.0397 298.147 51.0033C298.5 50.9669 298.922 51.5157 299.09 52.2493Z" fill="#407BFF" style="fill:#407BFF;fill:color(display-p3 0.2510 0.4824 1.0000);fill-opacity:1;"/>
<path d="M302.487 52.9689L298.755 53.6604L298.147 51.0061L301.972 50.7177L302.487 52.9689Z" fill="#407BFF" style="fill:#407BFF;fill:color(display-p3 0.2510 0.4824 1.0000);fill-opacity:1;"/>
<path d="M302.725 51.7788C302.868 52.4004 302.762 52.9324 302.487 52.9688C302.213 53.0052 301.877 52.5292 301.737 51.9076C301.597 51.286 301.701 50.7512 301.972 50.7176C302.244 50.684 302.583 51.16 302.725 51.7788Z" fill="#407BFF" style="fill:#407BFF;fill:color(display-p3 0.2510 0.4824 1.0000);fill-opacity:1;"/>
<path opacity="0.3" d="M302.725 51.7788C302.868 52.4004 302.762 52.9324 302.487 52.9688C302.213 53.0052 301.877 52.5292 301.737 51.9076C301.597 51.286 301.701 50.7512 301.972 50.7176C302.244 50.684 302.583 51.16 302.725 51.7788Z" fill="black" style="fill:black;fill:black;fill-opacity:1;"/>
<path d="M303.257 51.188L302.157 51.2356C301.997 51.2552 301.93 51.5408 302.006 51.8712C302.081 52.2016 302.286 52.4536 302.431 52.4312L303.49 52.2016C303.61 52.1848 303.655 51.944 303.59 51.664C303.526 51.384 303.378 51.16 303.257 51.188Z" fill="#407BFF" style="fill:#407BFF;fill:color(display-p3 0.2510 0.4824 1.0000);fill-opacity:1;"/>
<path opacity="0.4" d="M303.257 51.188L302.157 51.2356C301.997 51.2552 301.93 51.5408 302.006 51.8712C302.081 52.2016 302.286 52.4536 302.431 52.4312L303.49 52.2016C303.61 52.1848 303.655 51.944 303.59 51.664C303.526 51.384 303.378 51.16 303.257 51.188Z" fill="black" style="fill:black;fill:black;fill-opacity:1;"/>
<path d="M297.206 52.4928C297.374 53.2264 297.223 53.8592 296.87 53.8928C296.517 53.9264 296.094 53.3804 295.929 52.6468C295.764 51.9132 295.91 51.2832 296.262 51.2468C296.615 51.2104 297.038 51.7592 297.206 52.4928Z" fill="#407BFF" style="fill:#407BFF;fill:color(display-p3 0.2510 0.4824 1.0000);fill-opacity:1;"/>
<path d="M300.605 53.2125L296.87 53.9041L296.263 51.2497L300.09 50.9613L300.605 53.2125Z" fill="#407BFF" style="fill:#407BFF;fill:color(display-p3 0.2510 0.4824 1.0000);fill-opacity:1;"/>
<path d="M300.844 52.0225C300.984 52.6441 300.877 53.1761 300.606 53.2125C300.334 53.2489 299.995 52.7729 299.852 52.1513C299.71 51.5297 299.816 50.9949 300.09 50.9613C300.365 50.9277 300.701 51.4009 300.844 52.0225Z" fill="#407BFF" style="fill:#407BFF;fill:color(display-p3 0.2510 0.4824 1.0000);fill-opacity:1;"/>
<path opacity="0.3" d="M300.844 52.0225C300.984 52.6441 300.877 53.1761 300.606 53.2125C300.334 53.2489 299.995 52.7729 299.852 52.1513C299.71 51.5297 299.816 50.9949 300.09 50.9613C300.365 50.9277 300.701 51.4009 300.844 52.0225Z" fill="black" style="fill:black;fill:black;fill-opacity:1;"/>
<path d="M301.373 51.4401L300.275 51.4877C300.115 51.5073 300.048 51.7929 300.124 52.1233C300.199 52.4537 300.39 52.7057 300.549 52.6833L301.605 52.4537C301.725 52.4369 301.773 52.1961 301.709 51.9161C301.644 51.6361 301.493 51.4149 301.373 51.4401Z" fill="#407BFF" style="fill:#407BFF;fill:color(display-p3 0.2510 0.4824 1.0000);fill-opacity:1;"/>
<path opacity="0.4" d="M301.373 51.4401L300.275 51.4877C300.115 51.5073 300.048 51.7929 300.124 52.1233C300.199 52.4537 300.39 52.7057 300.549 52.6833L301.605 52.4537C301.725 52.4369 301.773 52.1961 301.709 51.9161C301.644 51.6361 301.493 51.4149 301.373 51.4401Z" fill="black" style="fill:black;fill:black;fill-opacity:1;"/>
<path d="M301.785 51.7845C301.757 51.9497 301.645 52.0645 301.538 52.0449C301.432 52.0253 301.37 51.8797 301.398 51.7145C301.426 51.5493 301.538 51.4345 301.645 51.4541C301.751 51.4737 301.816 51.6221 301.785 51.7845Z" fill="#263238" style="fill:#263238;fill:color(display-p3 0.1490 0.1961 0.2196);fill-opacity:1;"/>
<path d="M301.661 52.0673C301.377 52.5322 301.029 52.9553 300.628 53.3245C300.726 53.4233 300.844 53.4995 300.975 53.5479C301.106 53.5963 301.245 53.6156 301.384 53.6045L301.661 52.0673Z" fill="#ED847E" style="fill:#ED847E;fill:color(display-p3 0.9294 0.5176 0.4941);fill-opacity:1;"/>
<path d="M302.546 50.9864C302.518 50.9859 302.492 50.9749 302.473 50.9556C302.39 50.8655 302.288 50.7962 302.173 50.7533C302.059 50.7105 301.936 50.6954 301.815 50.7092C301.789 50.7134 301.763 50.7076 301.742 50.693C301.72 50.6784 301.705 50.6561 301.7 50.6308C301.698 50.6181 301.698 50.6051 301.7 50.5924C301.703 50.5798 301.708 50.5678 301.715 50.5571C301.723 50.5464 301.732 50.5373 301.743 50.5303C301.754 50.5232 301.766 50.5184 301.778 50.516C301.933 50.4955 302.09 50.5125 302.236 50.5656C302.382 50.6188 302.513 50.7065 302.618 50.8212C302.631 50.8349 302.64 50.852 302.643 50.8705C302.647 50.8889 302.645 50.908 302.638 50.9254C302.631 50.9429 302.619 50.9579 302.604 50.9687C302.588 50.9795 302.57 50.9856 302.551 50.9864H302.546Z" fill="#263238" style="fill:#263238;fill:color(display-p3 0.1490 0.1961 0.2196);fill-opacity:1;"/>
<path d="M306.466 53.9601C306.205 55.4721 305.976 58.2357 307.051 59.2157C307.051 59.2157 306.673 60.7501 303.879 60.8145C300.799 60.8845 302.375 59.3221 302.375 59.3221C304.055 58.8825 303.971 57.6421 303.652 56.4773L306.466 53.9601Z" fill="#FFC3BD" style="fill:#FFC3BD;fill:color(display-p3 1.0000 0.7647 0.7412);fill-opacity:1;"/>
<path d="M290.209 124.346C289.946 124.346 289.691 124.31 289.605 124.19C289.582 124.159 289.57 124.121 289.57 124.083C289.57 124.045 289.582 124.008 289.605 123.977C289.621 123.948 289.643 123.923 289.67 123.904C289.696 123.884 289.727 123.87 289.759 123.862C290.1 123.77 290.82 124.181 290.851 124.198C290.859 124.203 290.865 124.211 290.869 124.22C290.873 124.229 290.875 124.239 290.873 124.248C290.871 124.258 290.867 124.267 290.86 124.274C290.853 124.281 290.844 124.286 290.834 124.288C290.628 124.325 290.419 124.345 290.209 124.346ZM289.885 123.96C289.853 123.955 289.821 123.955 289.789 123.96C289.77 123.964 289.751 123.972 289.735 123.983C289.718 123.995 289.705 124.01 289.694 124.027C289.661 124.089 289.672 124.12 289.694 124.136C289.792 124.268 290.31 124.271 290.694 124.218C290.443 124.08 290.169 123.993 289.885 123.96Z" fill="#407BFF" style="fill:#407BFF;fill:color(display-p3 0.2510 0.4824 1.0000);fill-opacity:1;"/>
<path d="M290.831 124.288H290.811C290.562 124.176 290.072 123.728 290.108 123.498C290.108 123.445 290.156 123.375 290.29 123.361C290.34 123.355 290.391 123.359 290.439 123.374C290.487 123.388 290.532 123.412 290.57 123.445C290.834 123.66 290.887 124.215 290.89 124.237C290.891 124.246 290.889 124.254 290.886 124.262C290.883 124.27 290.877 124.277 290.87 124.282C290.864 124.286 290.858 124.288 290.851 124.289C290.844 124.29 290.837 124.29 290.831 124.288ZM290.33 123.448H290.299C290.212 123.448 290.206 123.492 290.204 123.504C290.181 123.641 290.517 123.991 290.764 124.145C290.74 123.909 290.642 123.686 290.484 123.509C290.44 123.474 290.386 123.455 290.33 123.453V123.448Z" fill="#407BFF" style="fill:#407BFF;fill:color(display-p3 0.2510 0.4824 1.0000);fill-opacity:1;"/>
<path d="M293.093 124.24H291.035L290.831 119.477H292.889L293.093 124.24Z" fill="#FFC3BD" style="fill:#FFC3BD;fill:color(display-p3 1.0000 0.7647 0.7412);fill-opacity:1;"/>
<path d="M291.049 124.002H293.289C293.33 124.002 293.37 124.016 293.402 124.042C293.434 124.067 293.456 124.102 293.466 124.142L293.872 125.97C293.882 126.015 293.882 126.061 293.872 126.105C293.861 126.149 293.841 126.191 293.813 126.226C293.784 126.262 293.748 126.29 293.707 126.309C293.665 126.328 293.62 126.338 293.575 126.337C292.766 126.323 291.595 126.276 290.576 126.276C289.386 126.276 288.356 126.34 286.961 126.34C286.121 126.34 285.88 125.486 286.233 125.408C287.843 125.058 289.156 125.018 290.548 124.162C290.697 124.063 290.871 124.008 291.049 124.002Z" fill="#263238" style="fill:#263238;fill:color(display-p3 0.1490 0.1961 0.2196);fill-opacity:1;"/>
<path d="M299.225 59.9689C299.225 59.9689 297.091 62.4889 299.505 77.7461L310.506 77.4969C310.537 76.0185 309.588 69.5449 310.319 62.5953C310.365 62.1858 310.326 61.7713 310.207 61.3771C310.087 60.9829 309.888 60.6174 309.622 60.3028C309.356 59.9882 309.028 59.7313 308.659 59.5477C308.29 59.3642 307.888 59.2578 307.477 59.2353L307.051 59.2213C305.492 59.1651 303.93 59.2006 302.375 59.3277C301.31 59.4589 300.257 59.6733 299.225 59.9689Z" fill="#407BFF" style="fill:#407BFF;fill:color(display-p3 0.2510 0.4824 1.0000);fill-opacity:1;"/>
<path opacity="0.3" d="M299.226 59.9689C299.226 59.9689 299.469 59.8961 299.867 59.7953C301.079 59.8933 301.698 61.2709 301.407 62.7213C301.191 63.8021 299.662 65.3085 298.36 66.4201C298.271 61.1001 299.226 59.9689 299.226 59.9689Z" fill="black" style="fill:black;fill:black;fill-opacity:1;"/>
<path d="M300.721 62.8473C300.567 62.8837 300.488 62.8949 300.385 62.9145L300.105 62.9621C299.914 62.9845 299.724 63.0041 299.545 63.0153C299.169 63.0461 298.803 63.0545 298.425 63.0489C297.691 63.0288 296.961 62.9435 296.243 62.7941C295.529 62.6408 294.829 62.4301 294.149 62.1641L293.651 61.9457L293.357 61.8141C293.086 61.6834 292.849 61.4917 292.665 61.2541C292.488 61.0278 292.363 60.7647 292.301 60.4841C292.256 60.283 292.239 60.0766 292.251 59.8709C292.269 59.5924 292.323 59.3175 292.413 59.0533C292.549 58.6645 292.721 58.2895 292.928 57.9333C293.105 57.6205 293.298 57.3168 293.505 57.0233C293.905 56.4633 294.323 55.9173 294.759 55.4077C295.623 54.3906 296.548 53.4283 297.531 52.5265L298.688 53.5485C297.971 54.6013 297.251 55.6765 296.579 56.7405C296.249 57.2781 295.924 57.8129 295.641 58.3449C295.501 58.6109 295.361 58.8741 295.255 59.1261C295.153 59.3466 295.073 59.5763 295.014 59.8121C294.995 59.8989 294.997 59.9717 295.014 59.9493C295.023 59.9078 295.023 59.8648 295.014 59.8233C294.988 59.7007 294.935 59.5858 294.857 59.4873C294.774 59.381 294.669 59.2941 294.549 59.2325L294.603 59.2493L294.703 59.2801L295.115 59.4089C295.666 59.5642 296.228 59.6821 296.795 59.7617C297.356 59.8422 297.922 59.8824 298.489 59.8821C298.769 59.8821 299.049 59.8821 299.329 59.8597C299.469 59.8597 299.609 59.8345 299.735 59.8205L300.065 59.7813L300.721 62.8473Z" fill="#FFC3BD" style="fill:#FFC3BD;fill:color(display-p3 1.0000 0.7647 0.7412);fill-opacity:1;"/>
<path d="M301.972 63.7433C300.542 65.0929 294.547 62.9425 294.547 62.9425L296.062 59.3193C296.062 59.3193 298.808 59.2661 301.351 59.3193C304.492 59.4089 303.543 62.2649 301.972 63.7433Z" fill="#407BFF" style="fill:#407BFF;fill:color(display-p3 0.2510 0.4824 1.0000);fill-opacity:1;"/>
<path d="M297.232 53.5373L297.159 51.4401L299.237 51.2161C299.237 51.2161 299.679 53.3525 298.304 53.8929L297.232 53.5373Z" fill="#FFC3BD" style="fill:#FFC3BD;fill:color(display-p3 1.0000 0.7647 0.7412);fill-opacity:1;"/>
<path d="M297.784 50.5805L298.904 50.5301C298.962 50.5274 299.019 50.5381 299.073 50.5614C299.126 50.5847 299.173 50.6199 299.21 50.6643C299.247 50.7087 299.274 50.7611 299.288 50.8175C299.302 50.8738 299.303 50.9326 299.29 50.9893L299.237 51.2161L297.159 51.4401L297.462 50.7989C297.49 50.7361 297.535 50.6824 297.592 50.6439C297.648 50.6053 297.715 50.5833 297.784 50.5805Z" fill="#FFC3BD" style="fill:#FFC3BD;fill:color(display-p3 1.0000 0.7647 0.7412);fill-opacity:1;"/>
<path opacity="0.2" d="M290.831 119.477L290.937 121.933H292.995L292.889 119.477H290.831Z" fill="black" style="fill:black;fill:black;fill-opacity:1;"/>
<path d="M307.295 52.4172C306.811 54.3996 306.629 55.5868 305.43 56.4324C303.627 57.7092 301.317 56.3456 301.2 54.2568C301.093 52.378 301.902 49.4492 304 49.004C304.464 48.9061 304.945 48.9277 305.398 49.0668C305.852 49.2058 306.262 49.4577 306.592 49.7988C306.921 50.14 307.158 50.5592 307.282 51.0172C307.405 51.4752 307.409 51.9569 307.295 52.4172Z" fill="#FFC3BD" style="fill:#FFC3BD;fill:color(display-p3 1.0000 0.7647 0.7412);fill-opacity:1;"/>
<path d="M303.118 52.6217C302.387 52.1401 302.838 50.2109 302.992 49.8385C302.798 49.9302 302.582 49.9623 302.37 49.9309C302.37 49.9309 303.087 48.5085 305.139 48.9397C307.192 49.3709 308.281 50.8997 307.847 52.3445C307.413 53.7893 306.71 55.6233 305.73 55.7493C304.75 55.8753 302.79 55.1893 303.118 52.6217Z" fill="#263238" style="fill:#263238;fill:color(display-p3 0.1490 0.1961 0.2196);fill-opacity:1;"/>
<path d="M302.935 51.44C302.202 50.6896 300.435 49.3092 300.497 48.8584C300.606 48.0688 302.865 47.5537 304.719 50.4489C305.542 51.7369 303.834 52.3612 302.935 51.44Z" fill="#407BFF" style="fill:#407BFF;fill:color(display-p3 0.2510 0.4824 1.0000);fill-opacity:1;"/>
<path opacity="0.3" d="M302.935 51.44C302.202 50.6896 300.435 49.3092 300.497 48.8584C300.606 48.0688 302.865 47.5537 304.719 50.4489C305.542 51.7369 303.834 52.3612 302.935 51.44Z" fill="black" style="fill:black;fill:black;fill-opacity:1;"/>
<path d="M302.12 50.0765C302.099 50.1452 302.093 50.218 302.104 50.2893C302.115 50.3606 302.141 50.4286 302.182 50.4881C302.657 51.1869 303.231 51.8124 303.887 52.3444C305.102 53.33 307.074 53.4812 307.622 53.3776C308.07 53.2908 308.378 51.7481 308.479 51.1881C308.503 51.055 308.484 50.918 308.426 50.7961C308.21 50.3397 307.586 49.2 306.603 48.7604C305.62 48.3208 304.128 48.3769 303.537 48.4161C303.371 48.4277 303.215 48.5017 303.1 48.6233C302.68 49.0373 302.347 49.5315 302.12 50.0765Z" fill="#407BFF" style="fill:#407BFF;fill:color(display-p3 0.2510 0.4824 1.0000);fill-opacity:1;"/>
<path d="M306.11 52.5601L305.9 53.0529C306.433 53.1782 306.98 53.2393 307.527 53.2349C307.623 53.4019 307.704 53.5771 307.768 53.7585C307.839 53.6059 307.876 53.4396 307.876 53.2713C307.876 53.1029 307.839 52.9366 307.768 52.7841C307.209 52.7669 306.654 52.6918 306.11 52.5601Z" fill="#263238" style="fill:#263238;fill:color(display-p3 0.1490 0.1961 0.2196);fill-opacity:1;"/>
<path d="M304.322 52.8736C304.12 53.3395 303.772 53.7269 303.33 53.9768C302.745 54.296 302.404 53.8536 302.524 53.26C302.633 52.7224 303.067 51.9104 303.675 51.832C304.282 51.7536 304.554 52.308 304.322 52.8736Z" fill="#FFC3BD" style="fill:#FFC3BD;fill:color(display-p3 1.0000 0.7647 0.7412);fill-opacity:1;"/>
<path d="M310.697 124.346C310.475 124.373 310.251 124.317 310.067 124.19C310.04 124.162 310.023 124.126 310.017 124.088C310.011 124.05 310.017 124.012 310.033 123.977C310.045 123.948 310.063 123.923 310.086 123.903C310.11 123.883 310.138 123.869 310.168 123.862C310.495 123.77 311.288 124.181 311.318 124.198C311.327 124.203 311.335 124.21 311.34 124.219C311.346 124.228 311.349 124.238 311.349 124.248C311.35 124.258 311.347 124.267 311.342 124.274C311.336 124.281 311.328 124.286 311.318 124.288C311.113 124.326 310.905 124.345 310.697 124.346ZM310.302 123.96C310.271 123.956 310.24 123.956 310.21 123.96C310.191 123.964 310.174 123.972 310.159 123.983C310.145 123.995 310.133 124.01 310.126 124.027C310.115 124.043 310.11 124.062 310.11 124.082C310.11 124.101 310.115 124.12 310.126 124.136C310.246 124.268 310.767 124.271 311.139 124.218C310.877 124.084 310.594 123.997 310.302 123.96Z" fill="#407BFF" style="fill:#407BFF;fill:color(display-p3 0.2510 0.4824 1.0000);fill-opacity:1;"/>
<path d="M311.307 124.288H311.287C311.021 124.176 310.447 123.728 310.447 123.498C310.447 123.445 310.472 123.375 310.604 123.361C310.704 123.355 310.804 123.385 310.884 123.445C311.113 123.661 311.278 123.936 311.36 124.24C311.364 124.247 311.365 124.255 311.365 124.262C311.365 124.27 311.364 124.278 311.36 124.285C311.352 124.291 311.343 124.294 311.334 124.294C311.324 124.295 311.315 124.293 311.307 124.288ZM310.663 123.448H310.635C310.548 123.448 310.548 123.492 310.548 123.504C310.548 123.641 310.943 123.991 311.223 124.145C311.155 123.903 311.024 123.683 310.842 123.509C310.79 123.472 310.727 123.453 310.663 123.453V123.448Z" fill="#407BFF" style="fill:#407BFF;fill:color(display-p3 0.2510 0.4824 1.0000);fill-opacity:1;"/>
<path d="M313.598 124.24H311.543L310.291 119.477H312.346L313.598 124.24Z" fill="#FFC3BD" style="fill:#FFC3BD;fill:color(display-p3 1.0000 0.7647 0.7412);fill-opacity:1;"/>
<path d="M311.478 124.002H313.718C313.761 124.003 313.803 124.017 313.838 124.042C313.873 124.067 313.901 124.102 313.916 124.142L314.639 125.97C314.659 126.01 314.668 126.054 314.666 126.098C314.664 126.142 314.651 126.184 314.627 126.222C314.603 126.259 314.57 126.289 314.531 126.309C314.492 126.33 314.448 126.339 314.404 126.337C313.592 126.323 312.413 126.276 311.394 126.276C310.204 126.276 309.187 126.34 307.79 126.34C306.95 126.34 306.564 125.486 306.905 125.408C308.454 125.058 309.761 125.018 311.004 124.162C311.142 124.06 311.307 124.005 311.478 124.002Z" fill="#263238" style="fill:#263238;fill:color(display-p3 0.1490 0.1961 0.2196);fill-opacity:1;"/>
<path opacity="0.2" d="M310.291 119.477L311.011 122.216L312.993 121.933L312.349 119.477H310.291Z" fill="black" style="fill:black;fill:black;fill-opacity:1;"/>
<path d="M302.96 77.6705C302.96 77.6705 299.449 93.3113 300.513 99.5889C301.633 106.116 310.078 121.457 310.078 121.457L313.413 121.028C313.413 121.028 308.586 103.568 306.693 99.1885C308.093 86.2217 311.002 83.8865 310.49 77.5109L302.96 77.6705Z" fill="#263238" style="fill:#263238;fill:color(display-p3 0.1490 0.1961 0.2196);fill-opacity:1;"/>
<path opacity="0.2" d="M303.394 82.842C303.238 82.7064 303.041 82.6266 302.834 82.6152C302.327 84.0432 301.765 85.6476 301.193 87.2884C300.913 89.1812 300.656 91.1636 300.499 93.0424C302.812 88.82 304.901 84.0796 303.394 82.842Z" fill="black" style="fill:black;fill:black;fill-opacity:1;"/>
<path d="M309.098 120.379C309.084 120.379 309.728 121.757 309.728 121.757L313.928 121.197L313.648 119.931L309.098 120.379Z" fill="#407BFF" style="fill:#407BFF;fill:color(display-p3 0.2510 0.4824 1.0000);fill-opacity:1;"/>
<path d="M299.505 77.76C299.505 77.76 289.521 92.6616 289.498 98.9392C289.484 105.469 290.17 121.457 290.17 121.457H293.653C293.653 121.457 296.039 105.424 295.759 98.5276C298.402 93.076 302.874 86.7312 305.31 82.3632C306.144 80.8779 306.712 79.2586 306.99 77.578L299.505 77.76Z" fill="#263238" style="fill:#263238;fill:color(display-p3 0.1490 0.1961 0.2196);fill-opacity:1;"/>
<path d="M289.501 120.068C289.484 120.068 289.697 121.516 289.697 121.516H293.936L294.051 120.225L289.501 120.068Z" fill="#407BFF" style="fill:#407BFF;fill:color(display-p3 0.2510 0.4824 1.0000);fill-opacity:1;"/>
<path d="M300.821 59.2968C301.812 59.6496 304.245 63.956 298.466 66.9856C298.401 67.0194 298.347 67.07 298.308 67.132C298.269 67.194 298.247 67.2653 298.245 67.3384C298.217 70.2112 298.312 74.0584 298.525 75.7636C298.532 75.8171 298.549 75.8688 298.576 75.9155C298.603 75.9622 298.64 76.003 298.683 76.0356C298.726 76.0682 298.775 76.0919 298.827 76.1053C298.879 76.1187 298.934 76.1215 298.987 76.1136C303.747 75.4136 308.457 75.3828 310.268 75.5536C310.328 75.5596 310.388 75.5524 310.444 75.5325C310.5 75.5126 310.552 75.4806 310.594 75.4386C310.637 75.3966 310.67 75.3457 310.69 75.2896C310.711 75.2335 310.719 75.1736 310.713 75.114C310.464 72.4904 310.184 66.5348 310.509 64.1744C310.859 61.6544 310.694 60.456 309.481 59.4144C309.143 59.1119 308.74 58.8914 308.303 58.77C307.866 58.6486 307.407 58.6296 306.961 58.7144C306.961 58.7144 302.994 59.0196 302.647 59.042C302.033 59.0877 301.423 59.1728 300.821 59.2968Z" fill="#263238" style="fill:#263238;fill:color(display-p3 0.1490 0.1961 0.2196);fill-opacity:1;"/>
<path d="M302.322 58.9524L302.826 58.9244C302.855 58.9228 302.884 58.9303 302.909 58.9459C302.933 58.9614 302.952 58.9843 302.963 59.0112C303.313 59.8512 306.119 66.3752 310.375 66.5068C310.41 66.5068 310.444 66.5205 310.47 66.545C310.496 66.5695 310.511 66.603 310.512 66.6384C310.512 66.8484 310.512 67.05 310.512 67.1732C310.511 67.2071 310.497 67.2393 310.474 67.264C310.451 67.2888 310.42 67.3042 310.386 67.3076C309.647 67.3804 305.604 67.3748 302.199 59.1484C302.19 59.1274 302.187 59.1048 302.189 59.0823C302.191 59.0598 302.198 59.038 302.21 59.0189C302.222 58.9998 302.239 58.9838 302.258 58.9722C302.278 58.9606 302.3 58.9539 302.322 58.9524Z" fill="#407BFF" style="fill:#407BFF;fill:color(display-p3 0.2510 0.4824 1.0000);fill-opacity:1;"/>
<path d="M313.726 50.7429L313.317 50.6169L313.452 50.1857L312.892 50.0121L310.036 59.2521L309.658 59.1373C309.579 59.1126 309.497 59.1037 309.415 59.111C309.333 59.1184 309.253 59.1418 309.18 59.1801C309.107 59.2183 309.043 59.2706 308.99 59.3339C308.937 59.3972 308.898 59.4703 308.874 59.5489L306.762 66.3837C306.703 66.3392 306.637 66.3051 306.566 66.2829C306.04 66.1205 305.424 66.6077 305.189 67.3637C304.954 68.1197 305.189 68.8701 305.715 69.0437C305.787 69.0651 305.862 69.0754 305.936 69.0745L305.48 70.5641C305.455 70.6426 305.446 70.7252 305.454 70.8071C305.461 70.8891 305.485 70.9688 305.523 71.0417C305.561 71.1145 305.613 71.1791 305.677 71.2317C305.74 71.2843 305.813 71.3238 305.892 71.3481L306.432 71.5161C306.485 71.532 306.54 71.5374 306.595 71.532C306.649 71.5265 306.702 71.5103 306.751 71.4843C306.799 71.4583 306.842 71.4229 306.877 71.3804C306.911 71.3378 306.937 71.2887 306.953 71.2361L308.714 65.5325L310.478 59.8289L312.903 51.9889L313.726 50.7429ZM305.791 68.8001C305.404 68.6797 305.231 68.0609 305.43 67.4449C305.628 66.8289 306.104 66.4089 306.491 66.5293C306.563 66.5541 306.628 66.5953 306.681 66.6497L306.242 68.0749C306.078 67.9339 305.946 67.7591 305.855 67.5625C305.842 67.5323 305.818 67.5084 305.788 67.4959C305.757 67.4833 305.723 67.4831 305.693 67.4953C305.663 67.5088 305.639 67.5336 305.626 67.5644C305.614 67.5952 305.613 67.6296 305.626 67.6605C305.745 67.9256 305.931 68.1553 306.166 68.3269L306.018 68.8057C305.943 68.8221 305.865 68.8202 305.791 68.8001Z" fill="#407BFF" style="fill:#407BFF;fill:color(display-p3 0.2510 0.4824 1.0000);fill-opacity:1;"/>
<path opacity="0.7" d="M313.726 50.7429L313.317 50.6169L313.452 50.1857L312.892 50.0121L310.036 59.2521L309.658 59.1373C309.579 59.1126 309.497 59.1037 309.415 59.111C309.333 59.1184 309.253 59.1418 309.18 59.1801C309.107 59.2183 309.043 59.2706 308.99 59.3339C308.937 59.3972 308.898 59.4703 308.874 59.5489L306.762 66.3837C306.703 66.3392 306.637 66.3051 306.566 66.2829C306.04 66.1205 305.424 66.6077 305.189 67.3637C304.954 68.1197 305.189 68.8701 305.715 69.0437C305.787 69.0651 305.862 69.0754 305.936 69.0745L305.48 70.5641C305.455 70.6426 305.446 70.7252 305.454 70.8071C305.461 70.8891 305.485 70.9688 305.523 71.0417C305.561 71.1145 305.613 71.1791 305.677 71.2317C305.74 71.2843 305.813 71.3238 305.892 71.3481L306.432 71.5161C306.485 71.532 306.54 71.5374 306.595 71.532C306.649 71.5265 306.702 71.5103 306.751 71.4843C306.799 71.4583 306.842 71.4229 306.877 71.3804C306.911 71.3378 306.937 71.2887 306.953 71.2361L308.714 65.5325L310.478 59.8289L312.903 51.9889L313.726 50.7429ZM305.791 68.8001C305.404 68.6797 305.231 68.0609 305.43 67.4449C305.628 66.8289 306.104 66.4089 306.491 66.5293C306.563 66.5541 306.628 66.5953 306.681 66.6497L306.242 68.0749C306.078 67.9339 305.946 67.7591 305.855 67.5625C305.842 67.5323 305.818 67.5084 305.788 67.4959C305.757 67.4833 305.723 67.4831 305.693 67.4953C305.663 67.5088 305.639 67.5336 305.626 67.5644C305.614 67.5952 305.613 67.6296 305.626 67.6605C305.745 67.9256 305.931 68.1553 306.166 68.3269L306.018 68.8057C305.943 68.8221 305.865 68.8202 305.791 68.8001Z" fill="white" style="fill:white;fill:white;fill-opacity:1;"/>
<path d="M307.644 66.1734L307.087 66.0016C306.976 65.9672 306.883 65.8899 306.828 65.7868C306.774 65.6837 306.763 65.5632 306.797 65.4518L308.679 59.3574C308.713 59.2474 308.768 59.1452 308.842 59.0566C308.915 58.968 309.005 58.8947 309.107 58.841C309.209 58.7872 309.32 58.7541 309.435 58.7433C309.549 58.7326 309.665 58.7446 309.775 58.7786L309.917 58.8223C309.988 58.8443 310.047 58.8935 310.082 58.9591C310.116 59.0248 310.124 59.1015 310.102 59.1725L308 65.9786C307.978 66.0496 307.929 66.1089 307.863 66.1436C307.798 66.1783 307.721 66.1854 307.65 66.1635L307.644 66.1734Z" fill="#407BFF" style="fill:#407BFF;fill:color(display-p3 0.2510 0.4824 1.0000);fill-opacity:1;"/>
<path opacity="0.2" d="M307.644 66.1734L307.087 66.0016C306.976 65.9672 306.883 65.8899 306.828 65.7868C306.774 65.6837 306.763 65.5632 306.797 65.4518L308.679 59.3574C308.713 59.2474 308.768 59.1452 308.842 59.0566C308.915 58.968 309.005 58.8947 309.107 58.841C309.209 58.7872 309.32 58.7541 309.435 58.7433C309.549 58.7326 309.665 58.7446 309.775 58.7786L309.917 58.8223C309.988 58.8443 310.047 58.8935 310.082 58.9591C310.116 59.0248 310.124 59.1015 310.102 59.1725L308 65.9786C307.978 66.0496 307.929 66.1089 307.863 66.1436C307.798 66.1783 307.721 66.1854 307.65 66.1635L307.644 66.1734Z" fill="black" style="fill:black;fill:black;fill-opacity:1;"/>
<path d="M305.808 69.2704L307.323 69.738C307.375 69.7525 307.424 69.7773 307.466 69.8109C307.509 69.8445 307.544 69.8863 307.57 69.9338C307.597 69.9813 307.613 70.0335 307.618 70.0874C307.624 70.1413 307.619 70.1958 307.603 70.2476L307.259 71.32C307.245 71.3618 307.225 71.4014 307.2 71.4376L305.637 73.6188C305.589 73.6881 305.563 73.7707 305.563 73.8554C305.563 73.9401 305.589 74.0227 305.637 74.092C305.723 74.207 305.78 74.3402 305.805 74.4812C305.829 74.6221 305.821 74.7669 305.78 74.904C305.607 75.464 304.03 79.9888 303.479 81.274C303.444 81.3527 303.386 81.4186 303.312 81.4623C303.238 81.506 303.152 81.5254 303.067 81.5176C302.093 81.4476 301.04 80.9352 300.471 80.6188C300.419 80.5894 300.375 80.5488 300.34 80.5C300.306 80.4512 300.282 80.3954 300.272 80.3365C300.261 80.2777 300.264 80.2173 300.28 80.1596C300.295 80.1019 300.323 80.0484 300.362 80.0028C301.267 78.936 303.843 75.8532 304.044 75.1336C304.195 74.596 303.901 74.4 303.652 74.3272C303.567 74.3011 303.493 74.2471 303.443 74.174C303.392 74.1009 303.367 74.0129 303.372 73.924L303.392 73.4004C303.392 73.3479 303.404 73.296 303.425 73.2479C303.446 73.1998 303.477 73.1565 303.515 73.1204C303.795 72.8684 304.487 72.0256 305.301 69.5224C305.336 69.4227 305.409 69.3406 305.504 69.2936C305.598 69.2465 305.708 69.2382 305.808 69.2704Z" fill="#407BFF" style="fill:#407BFF;fill:color(display-p3 0.2510 0.4824 1.0000);fill-opacity:1;"/>
<path opacity="0.2" d="M305.808 69.2704L307.323 69.738C307.375 69.7525 307.424 69.7773 307.466 69.8109C307.509 69.8445 307.544 69.8863 307.57 69.9338C307.597 69.9813 307.613 70.0335 307.618 70.0874C307.624 70.1413 307.619 70.1958 307.603 70.2476L307.259 71.32C307.245 71.3618 307.225 71.4014 307.2 71.4376L305.637 73.6188C305.589 73.6881 305.563 73.7707 305.563 73.8554C305.563 73.9401 305.589 74.0227 305.637 74.092C305.723 74.207 305.78 74.3402 305.805 74.4812C305.829 74.6221 305.821 74.7669 305.78 74.904C305.607 75.464 304.03 79.9888 303.479 81.274C303.444 81.3527 303.386 81.4186 303.312 81.4623C303.238 81.506 303.152 81.5254 303.067 81.5176C302.093 81.4476 301.04 80.9352 300.471 80.6188C300.419 80.5894 300.375 80.5488 300.34 80.5C300.306 80.4512 300.282 80.3954 300.272 80.3365C300.261 80.2777 300.264 80.2173 300.28 80.1596C300.295 80.1019 300.323 80.0484 300.362 80.0028C301.267 78.936 303.843 75.8532 304.044 75.1336C304.195 74.596 303.901 74.4 303.652 74.3272C303.567 74.3011 303.493 74.2471 303.443 74.174C303.392 74.1009 303.367 74.0129 303.372 73.924L303.392 73.4004C303.392 73.3479 303.404 73.296 303.425 73.2479C303.446 73.1998 303.477 73.1565 303.515 73.1204C303.795 72.8684 304.487 72.0256 305.301 69.5224C305.336 69.4227 305.409 69.3406 305.504 69.2936C305.598 69.2465 305.708 69.2382 305.808 69.2704Z" fill="black" style="fill:black;fill:black;fill-opacity:1;"/>
<path opacity="0.3" d="M299.015 70.3008C299.169 71.2164 298.858 73.5852 299.234 73.924C299.609 74.2628 301.91 73.868 302.188 73.686C302.465 73.504 302.162 70.2392 302.101 69.8304C302.039 69.4216 298.97 70.0292 299.015 70.3008Z" fill="black" style="fill:black;fill:black;fill-opacity:1;"/>
<path d="M298.836 70.0768C299.116 69.7156 302.026 69.388 302.118 69.682C302.21 69.976 301.197 71.082 300.278 71.1688C299.36 71.2556 298.568 70.4408 298.836 70.0768Z" fill="#263238" style="fill:#263238;fill:color(display-p3 0.1490 0.1961 0.2196);fill-opacity:1;"/>
<path opacity="0.2" d="M298.836 70.0768C299.116 69.7156 302.026 69.388 302.118 69.682C302.21 69.976 301.197 71.082 300.278 71.1688C299.36 71.2556 298.568 70.4408 298.836 70.0768Z" fill="white" style="fill:white;fill:white;fill-opacity:1;"/>
</g>
<defs>
<clipPath id="clip0_0_1">
<rect width="390" height="150" fill="white" style="fill:white;fill:white;fill-opacity:1;"/>
</clipPath>
</defs>
</svg>
