<svg width="30" height="30" viewBox="0 0 30 30" fill="none" xmlns="http://www.w3.org/2000/svg">
<path fill-rule="evenodd" clip-rule="evenodd" d="M15 27C21.6274 27 27 21.6274 27 15C27 8.37258 21.6274 3 15 3C8.37258 3 3 8.37258 3 15C3 21.6274 8.37258 27 15 27ZM20.5607 13.0607C21.1464 12.4749 21.1464 11.5251 20.5607 10.9393C19.9749 10.3536 19.0251 10.3536 18.4393 10.9393L13.5 15.8787L11.5607 13.9393C10.9749 13.3536 10.0251 13.3536 9.43934 13.9393C8.85355 14.5251 8.85355 15.4749 9.43934 16.0607L12.4393 19.0607C13.0251 19.6464 13.9749 19.6464 14.5607 19.0607L20.5607 13.0607Z" fill="url(#paint0_linear_195_1245)"/>
<defs>
<linearGradient id="paint0_linear_195_1245" x1="3" y1="15" x2="27" y2="15" gradientUnits="userSpaceOnUse">
<stop stop-color="#9867FF"/>
<stop offset="1" stop-color="#6C64F8"/>
</linearGradient>
</defs>
</svg>
