<svg width="24" height="24" viewBox="0 0 24 24" fill="none" xmlns="http://www.w3.org/2000/svg">
<path d="M10.1204 8.90131C10.3062 8.77747 10.5357 8.66678 10.8004 8.58111L10.8004 10.6187C10.5357 10.533 10.3062 10.4223 10.1204 10.2985C9.68351 10.0072 9.60039 9.73658 9.60039 9.5999C9.60039 9.46322 9.68351 9.19259 10.1204 8.90131Z" fill="url(#paint0_linear_198_691)"/>
<path d="M13.2004 15.4187L13.2004 13.3811C13.4651 13.4668 13.6946 13.5775 13.8804 13.7013C14.3173 13.9926 14.4004 14.2632 14.4004 14.3999C14.4004 14.5366 14.3173 14.8072 13.8804 15.0985C13.6946 15.2223 13.4651 15.333 13.2004 15.4187Z" fill="url(#paint1_linear_198_691)"/>
<path fill-rule="evenodd" clip-rule="evenodd" d="M12.0004 21.5999C17.3023 21.5999 21.6004 17.3018 21.6004 11.9999C21.6004 6.69797 17.3023 2.3999 12.0004 2.3999C6.69846 2.3999 2.40039 6.69797 2.40039 11.9999C2.40039 17.3018 6.69846 21.5999 12.0004 21.5999ZM13.2004 5.9999C13.2004 5.33716 12.6631 4.7999 12.0004 4.7999C11.3376 4.7999 10.8004 5.33716 10.8004 5.9999V6.11029C10.0545 6.25037 9.36456 6.52079 8.78917 6.90439C7.92315 7.48173 7.20039 8.4111 7.20039 9.5999C7.20039 10.7887 7.92315 11.7181 8.78917 12.2954C9.36457 12.679 10.0545 12.9494 10.8004 13.0895L10.8004 15.419C10.3312 15.2666 9.98339 15.0382 9.78839 14.8134C9.35405 14.3129 8.59615 14.2592 8.09558 14.6935C7.59501 15.1279 7.54132 15.8858 7.97567 16.3864C8.65066 17.1643 9.67186 17.6769 10.8004 17.8891L10.8004 17.9999C10.8004 18.6626 11.3376 19.1999 12.0004 19.1999C12.6631 19.1999 13.2004 18.6627 13.2004 17.9999L13.2004 17.8895C13.9463 17.7494 14.6362 17.479 15.2116 17.0954C16.0777 16.5181 16.8004 15.5887 16.8004 14.3999C16.8004 13.2111 16.0776 12.2817 15.2116 11.7044C14.6362 11.3208 13.9463 11.0504 13.2004 10.9103L13.2004 8.5808C13.6696 8.73315 14.0174 8.96162 14.2124 9.18635C14.6468 9.68692 15.4047 9.74061 15.9052 9.30626C16.4058 8.87192 16.4595 8.11402 16.0251 7.61345C15.3501 6.83554 14.3289 6.32288 13.2004 6.11073V5.9999Z" fill="url(#paint2_linear_198_691)"/>
<defs>
<linearGradient id="paint0_linear_198_691" x1="2.40039" y1="11.9999" x2="21.6004" y2="11.9999" gradientUnits="userSpaceOnUse">
<stop stop-color="#9867FF"/>
<stop offset="1" stop-color="#6C64F8"/>
</linearGradient>
<linearGradient id="paint1_linear_198_691" x1="2.40039" y1="11.9999" x2="21.6004" y2="11.9999" gradientUnits="userSpaceOnUse">
<stop stop-color="#9867FF"/>
<stop offset="1" stop-color="#6C64F8"/>
</linearGradient>
<linearGradient id="paint2_linear_198_691" x1="2.40039" y1="11.9999" x2="21.6004" y2="11.9999" gradientUnits="userSpaceOnUse">
<stop stop-color="#9867FF"/>
<stop offset="1" stop-color="#6C64F8"/>
</linearGradient>
</defs>
</svg>
