<svg width="24" height="24" viewBox="0 0 24 24" fill="none" xmlns="http://www.w3.org/2000/svg">
<path d="M10.8002 7.2001C10.8002 9.18832 9.18842 10.8001 7.2002 10.8001C5.21197 10.8001 3.6002 9.18832 3.6002 7.2001C3.6002 5.21187 5.21197 3.6001 7.2002 3.6001C9.18842 3.6001 10.8002 5.21187 10.8002 7.2001Z" fill="url(#paint0_linear_198_689)"/>
<path d="M20.4002 7.2001C20.4002 9.18832 18.7884 10.8001 16.8002 10.8001C14.812 10.8001 13.2002 9.18832 13.2002 7.2001C13.2002 5.21187 14.812 3.6001 16.8002 3.6001C18.7884 3.6001 20.4002 5.21187 20.4002 7.2001Z" fill="url(#paint1_linear_198_689)"/>
<path d="M15.5152 20.4001C15.5712 20.0082 15.6002 19.6075 15.6002 19.2001C15.6002 17.2379 14.9274 15.4328 13.7999 14.003C14.6825 13.4924 15.7072 13.2001 16.8002 13.2001C20.1139 13.2001 22.8002 15.8864 22.8002 19.2001V20.4001H15.5152Z" fill="url(#paint2_linear_198_689)"/>
<path d="M7.2002 13.2001C10.5139 13.2001 13.2002 15.8864 13.2002 19.2001V20.4001H1.2002V19.2001C1.2002 15.8864 3.88649 13.2001 7.2002 13.2001Z" fill="url(#paint3_linear_198_689)"/>
<defs>
<linearGradient id="paint0_linear_198_689" x1="1.2002" y1="12.0001" x2="22.8002" y2="12.0001" gradientUnits="userSpaceOnUse">
<stop stop-color="#9867FF"/>
<stop offset="1" stop-color="#6C64F8"/>
</linearGradient>
<linearGradient id="paint1_linear_198_689" x1="1.2002" y1="12.0001" x2="22.8002" y2="12.0001" gradientUnits="userSpaceOnUse">
<stop stop-color="#9867FF"/>
<stop offset="1" stop-color="#6C64F8"/>
</linearGradient>
<linearGradient id="paint2_linear_198_689" x1="1.2002" y1="12.0001" x2="22.8002" y2="12.0001" gradientUnits="userSpaceOnUse">
<stop stop-color="#9867FF"/>
<stop offset="1" stop-color="#6C64F8"/>
</linearGradient>
<linearGradient id="paint3_linear_198_689" x1="1.2002" y1="12.0001" x2="22.8002" y2="12.0001" gradientUnits="userSpaceOnUse">
<stop stop-color="#9867FF"/>
<stop offset="1" stop-color="#6C64F8"/>
</linearGradient>
</defs>
</svg>
