<svg width="121" height="123" viewBox="0 0 121 123" fill="none" xmlns="http://www.w3.org/2000/svg">
<path d="M35.8994 99.0664V101.91H32.3721V114.461H28.8721V89.6328H32.3721V99.0664H35.8994ZM17.0049 92.0117V105.492C20.1904 105.451 23.6084 105.15 27.2041 104.426L27.5596 107.324C23.4033 108.172 19.3564 108.391 15.6924 108.391H13.5322V92.0117H17.0049ZM57.4244 89.6328V114.57H53.8971V89.6328H57.4244ZM41.3189 91.6016V97.6719H46.6783V91.6016H50.1236V108.746H37.8189V91.6016H41.3189ZM41.3189 105.93H46.6783V100.379H41.3189V105.93ZM74.5744 91.3008V94.0898H69.6252C69.6525 96.9883 71.3889 99.791 75.3674 100.953L73.6994 103.688C70.9514 102.854 69.051 101.186 67.9572 99.0391C66.8498 101.555 64.8264 103.551 61.8322 104.535L60.0549 101.773C64.1838 100.475 66.0432 97.248 66.0979 94.0898H61.0119V91.3008H74.5744ZM80.1799 89.6328V95.4023H83.5432V98.2461H80.1799V104.398H76.6799V89.6328H80.1799ZM72.0314 104.891C77.1994 104.863 80.426 106.641 80.426 109.676C80.426 112.711 77.1994 114.516 72.0314 114.516C66.7541 114.516 63.5002 112.711 63.5002 109.676C63.5002 106.641 66.7541 104.863 72.0314 104.891ZM72.0314 107.598C68.7502 107.598 66.9729 108.281 67.0002 109.676C66.9729 111.098 68.7502 111.809 72.0314 111.809C75.258 111.809 76.9807 111.098 76.9807 109.676C76.9807 108.281 75.258 107.598 72.0314 107.598ZM105.287 89.6328V114.57H101.842V101.227H97.4666V98.4102H101.842V89.6328H105.287ZM97.0564 91.7109V94.5273H88.908V98.6562H96.1541V101.391H88.908V106.094C92.3533 106.066 95.115 105.943 98.2049 105.465L98.5603 108.254C94.9236 108.801 91.6697 108.938 87.4041 108.938H85.4353V91.7109H97.0564Z" fill="url(#paint0_linear_242_2493)"/>
<path d="M92.9102 44.788C97.4026 44.0139 101.753 42.1795 105.425 39.5114C109.097 36.8433 111.929 33.4583 113.571 29.7745C115.213 26.0907 115.594 22.2695 114.666 18.7829C113.738 15.2963 111.543 12.2971 108.35 10.1555C105.158 8.01401 101.108 6.82409 96.7021 6.73271C92.2961 6.64134 87.7262 7.65256 83.5572 9.64141C79.3881 11.6303 75.8024 14.5097 73.2431 17.9239C70.6837 21.3382 65.2585 32.8699 65.1513 36.5855L66.0213 36.6277L66.8912 36.6698C66.9905 33.2255 72.2513 21.6759 74.6238 18.5109C76.9964 15.3459 80.3203 12.6767 84.1849 10.8331C88.0496 8.98944 92.2858 8.05205 96.3702 8.13676C100.455 8.22146 104.208 9.3245 107.168 11.3097C110.127 13.2948 112.163 16.0752 113.023 19.3072C113.883 22.5393 113.53 26.0815 112.008 29.4963C110.485 32.9111 107.86 36.049 104.456 38.5223C101.053 40.9956 97.0195 42.6961 92.8551 43.4136L92.9102 44.788Z" fill="#6C64F8" stroke="#6C64F8" stroke-width="4" stroke-linejoin="round"/>
<path d="M67.0263 53.9188C67.7323 56.7632 75.0076 65.5011 76.9411 67.7032C78.8747 69.9053 81.3084 71.6124 84.0392 72.6821C86.7699 73.7518 89.7185 74.153 92.6387 73.8522C95.5589 73.5514 98.366 72.5574 100.826 70.9531C103.286 69.3488 105.327 67.1808 106.778 64.6301C108.23 62.0793 109.051 59.2198 109.172 56.2903C109.292 53.3608 108.71 50.4462 107.473 47.7899C106.236 45.1336 104.38 42.8126 102.06 41.0207L101.237 42.0828C103.388 43.7439 105.108 45.8954 106.255 48.3578C107.401 50.8202 107.941 53.5219 107.829 56.2376C107.717 58.9532 106.957 61.604 105.611 63.9685C104.265 66.333 102.373 68.3427 100.093 69.8299C97.8126 71.3171 95.2104 72.2385 92.5034 72.5173C89.7964 72.7961 87.0631 72.4242 84.5317 71.4326C82.0003 70.4411 79.7443 68.8586 77.9519 66.8173C76.1595 64.776 68.996 56.0301 68.3415 53.3934L67.0263 53.9188Z" fill="#6C64F8" stroke="#6C64F8" stroke-width="4"/>
<path d="M63.8931 46.7885L60.6883 58.4119L75.4157 50.3387L63.8931 46.7885Z" fill="#6C64F8"/>
<path d="M57.3338 35.1056L60.5386 23.4823L45.8112 31.5554L57.3338 35.1056Z" fill="#9867FF"/>
<path d="M28.0907 44.7629C23.5984 43.9888 19.2477 42.1545 15.5759 39.4864C11.9042 36.8182 9.07218 33.4332 7.42987 29.7494C5.78757 26.0657 5.40682 22.2445 6.33466 18.7579C7.2625 15.2713 9.45829 12.272 12.6508 10.1305C15.8433 7.98894 19.8927 6.79901 24.2988 6.70764C28.7049 6.61627 33.2747 7.62748 37.4438 9.61633C41.6128 11.6052 45.1985 14.4846 47.7579 17.8989C50.3173 21.3132 54.8657 26.8219 54.9728 30.5375L53.9539 30.5376C53.8546 27.0932 48.7497 21.6509 46.3771 18.4858C44.0046 15.3208 40.6807 12.6517 36.816 10.808C32.9514 8.96435 28.7152 8.02698 24.6308 8.11168C20.5464 8.19638 16.7926 9.29943 13.8332 11.2846C10.8737 13.2698 8.83825 16.0501 7.97815 19.2821C7.11805 22.5142 7.471 26.0564 8.99341 29.4712C10.5158 32.886 13.141 36.0239 16.5447 38.4973C19.9484 40.9706 23.9815 42.671 28.1458 43.3885L28.0907 44.7629Z" fill="#6C64F8" stroke="#9867FF" stroke-width="4"/>
<path d="M54.273 53.9191C52.9389 57.0023 46.2917 65.5014 44.3582 67.7034C42.4246 69.9055 39.9909 71.6126 37.2602 72.6823C34.5294 73.752 31.5809 74.1532 28.6606 73.8524C25.7404 73.5517 22.9333 72.5576 20.4735 70.9534C18.0138 69.3491 15.9728 67.1811 14.5209 64.6303C13.0691 62.0795 12.2485 59.2201 12.1277 56.2905C12.0068 53.361 12.5893 50.4464 13.8263 47.7901C15.0634 45.1338 16.9193 42.8128 19.2389 41.0209L20.0621 42.083C17.9118 43.7441 16.1914 45.8957 15.0447 48.358C13.8979 50.8204 13.358 53.5222 13.47 56.2378C13.582 58.9535 14.3427 61.6042 15.6885 63.9687C17.0344 66.3333 18.9264 68.343 21.2065 69.8301C23.4867 71.3173 26.0889 72.2388 28.7959 72.5176C31.5029 72.7964 34.2362 72.4245 36.7676 71.4329C39.299 70.4413 41.555 68.8588 43.3474 66.8175C45.1398 64.7762 51.919 54.9665 52.9578 53.3937L53.2866 53.525L53.6154 53.6564L54.273 53.9191Z" fill="#6C64F8" stroke="#9867FF" stroke-width="4"/>
<rect x="50.0889" y="54.4314" width="32.7758" height="5.43981" rx="1" transform="rotate(-59.2383 50.0889 54.4314)" fill="url(#paint1_linear_242_2493)"/>
<rect x="64.2939" y="41.1956" width="15.063" height="5.43981" transform="rotate(-59.2383 64.2939 41.1956)" fill="white"/>
<defs>
<linearGradient id="paint0_linear_242_2493" x1="12.001" y1="102" x2="108.001" y2="102" gradientUnits="userSpaceOnUse">
<stop stop-color="#9867FF"/>
<stop offset="1" stop-color="#6C64F8"/>
</linearGradient>
<linearGradient id="paint1_linear_242_2493" x1="50.0889" y1="57.1513" x2="82.8646" y2="57.1513" gradientUnits="userSpaceOnUse">
<stop stop-color="#9867FF"/>
<stop offset="1" stop-color="#6C64F8"/>
</linearGradient>
</defs>
</svg>
