<svg width="129" height="36" viewBox="0 0 129 36" fill="none" xmlns="http://www.w3.org/2000/svg">
<rect width="129" height="36" fill="#F5F5F5"/>
<rect width="1701" height="2160" transform="translate(-193 -992)" fill="white"/>
<path d="M66.4844 15.9141V18.3516H63.4609V29.1094H60.4609V7.82812H63.4609V15.9141H66.4844ZM50.2891 9.86719V21.4219C53.0195 21.3867 55.9492 21.1289 59.0312 20.5078L59.3359 22.9922C55.7734 23.7188 52.3047 23.9062 49.1641 23.9062H47.3125V9.86719H50.2891ZM84.9344 7.82812V29.2031H81.9109V7.82812H84.9344ZM71.1297 9.51562V14.7188H75.7234V9.51562H78.6766V24.2109H68.1297V9.51562H71.1297ZM71.1297 21.7969H75.7234V17.0391H71.1297V21.7969ZM99.6344 9.25781V11.6484H95.3922C95.4156 14.1328 96.9039 16.5352 100.314 17.5312L98.8844 19.875C96.5289 19.1602 94.9 17.7305 93.9625 15.8906C93.0133 18.0469 91.2789 19.7578 88.7125 20.6016L87.1891 18.2344C90.7281 17.1211 92.3219 14.3555 92.3688 11.6484H88.0094V9.25781H99.6344ZM104.439 7.82812V12.7734H107.322V15.2109H104.439V20.4844H101.439V7.82812H104.439ZM97.4547 20.9062C101.884 20.8828 104.65 22.4062 104.65 25.0078C104.65 27.6094 101.884 29.1562 97.4547 29.1562C92.9313 29.1562 90.1422 27.6094 90.1422 25.0078C90.1422 22.4062 92.9313 20.8828 97.4547 20.9062ZM97.4547 23.2266C94.6422 23.2266 93.1188 23.8125 93.1422 25.0078C93.1188 26.2266 94.6422 26.8359 97.4547 26.8359C100.22 26.8359 101.697 26.2266 101.697 25.0078C101.697 23.8125 100.22 23.2266 97.4547 23.2266ZM125.959 7.82812V29.2031H123.006V17.7656H119.256V15.3516H123.006V7.82812H125.959ZM118.905 9.60938V12.0234H111.92V15.5625H118.131V17.9062H111.92V21.9375C114.873 21.9141 117.241 21.8086 119.889 21.3984L120.194 23.7891C117.077 24.2578 114.287 24.375 110.631 24.375H108.944V9.60938H118.905Z" fill="url(#paint0_linear_0_1)"/>
<path d="M31.4806 19.1761C33.0028 18.9138 34.477 18.2923 35.7212 17.3882C36.9653 16.4841 37.9249 15.3371 38.4814 14.0889C39.0379 12.8406 39.1669 11.5459 38.8525 10.3644C38.5381 9.18303 37.7941 8.16674 36.7123 7.44109C35.6306 6.71545 34.2585 6.31225 32.7655 6.28129C31.2725 6.25033 29.724 6.59297 28.3114 7.26689C26.8987 7.9408 25.6837 8.91647 24.8165 10.0734C23.9493 11.2303 22.1109 15.1377 22.0747 16.3967L22.3694 16.411L22.6642 16.4253C22.6978 15.2582 24.4804 11.3447 25.2844 10.2723C26.0883 9.19983 27.2146 8.29539 28.5241 7.67068C29.8336 7.04597 31.269 6.72834 32.653 6.75704C34.037 6.78574 35.3089 7.1595 36.3117 7.83217C37.3145 8.50483 38.0042 9.44693 38.2956 10.5421C38.5871 11.6373 38.4675 12.8375 37.9516 13.9946C37.4358 15.1517 36.5462 16.215 35.3929 17.053C34.2396 17.8911 32.873 18.4673 31.4619 18.7104L31.4806 19.1761Z" fill="#6C64F8" stroke="#6C64F8" stroke-width="2" stroke-linejoin="round"/>
<path d="M22.71 22.27C22.9493 23.2338 25.4144 26.1946 26.0696 26.9408C26.7248 27.687 27.5494 28.2654 28.4747 28.6279C29.4 28.9903 30.3991 29.1263 31.3886 29.0244C32.3781 28.9224 33.3293 28.5856 34.1628 28.042C34.9963 27.4984 35.6879 26.7638 36.1798 25.8995C36.6718 25.0352 36.9498 24.0662 36.9908 23.0736C37.0317 22.0809 36.8343 21.0934 36.4152 20.1933C35.996 19.2932 35.3672 18.5067 34.5811 17.8996L34.3022 18.2595C35.0308 18.8223 35.6138 19.5513 36.0023 20.3857C36.3909 21.2201 36.5739 22.1356 36.5359 23.0557C36.498 23.9759 36.2402 24.8741 35.7842 25.6753C35.3281 26.4765 34.687 27.1575 33.9144 27.6614C33.1418 28.1653 32.2601 28.4776 31.3428 28.572C30.4255 28.6665 29.4994 28.5405 28.6416 28.2045C27.7839 27.8685 27.0195 27.3323 26.4121 26.6406C25.8048 25.9489 23.3774 22.9854 23.1557 22.092L22.71 22.27Z" fill="#6C64F8" stroke="#6C64F8" stroke-width="2"/>
<path d="M21.6494 19.854L20.5634 23.7925L25.5537 21.0569L21.6494 19.854Z" fill="#6C64F8"/>
<path d="M19.6953 16.1323L20.7813 12.1938L15.7909 14.9293L19.6953 16.1323Z" fill="#9867FF"/>
<path d="M9.51693 19.1676C7.99473 18.9053 6.52052 18.2838 5.27636 17.3797C4.03221 16.4756 3.07261 15.3286 2.51612 14.0804C1.95963 12.8321 1.83062 11.5374 2.14501 10.3559C2.4594 9.17452 3.20343 8.15823 4.2852 7.43258C5.36697 6.70694 6.73908 6.30374 8.23207 6.27278C9.72505 6.24182 11.2735 6.58446 12.6862 7.25838C14.0988 7.93229 15.3138 8.90796 16.1811 10.0649C17.0483 11.2218 18.5895 13.0884 18.6258 14.3474L18.2805 14.3474C18.2469 13.1803 16.5171 11.3362 15.7132 10.2638C14.9093 9.19132 13.783 8.28688 12.4735 7.66217C11.1639 7.03746 9.72854 6.71983 8.34456 6.74853C6.96057 6.77723 5.68863 7.15099 4.68584 7.82366C3.68305 8.49632 2.99334 9.43842 2.7019 10.5336C2.41046 11.6287 2.53005 12.829 3.04591 13.9861C3.56177 15.1432 4.45131 16.2064 5.60463 17.0445C6.75795 17.8826 8.12454 18.4588 9.53561 18.7019L9.51693 19.1676Z" fill="#6C64F8" stroke="#9867FF" stroke-width="2"/>
<path d="M18.3886 22.2702C17.9366 23.3149 15.6842 26.1948 15.029 26.9409C14.3738 27.6871 13.5492 28.2655 12.6239 28.628C11.6986 28.9904 10.6995 29.1264 9.70999 29.0245C8.72049 28.9226 7.7693 28.5857 6.93583 28.0421C6.10235 27.4985 5.41078 26.7639 4.91882 25.8996C4.42687 25.0353 4.14882 24.0664 4.10787 23.0737C4.06693 22.0811 4.26428 21.0935 4.68346 20.1934C5.10264 19.2933 5.73148 18.5069 6.51749 17.8997L6.79641 18.2596C6.06779 18.8224 5.48486 19.5515 5.09629 20.3858C4.70771 21.2202 4.52477 22.1357 4.56272 23.0559C4.60067 23.976 4.85843 24.8742 5.31446 25.6754C5.7705 26.4766 6.41159 27.1576 7.18421 27.6615C7.95683 28.1655 8.83857 28.4777 9.75583 28.5722C10.6731 28.6666 11.5992 28.5406 12.457 28.2046C13.3147 27.8686 14.0792 27.3324 14.6865 26.6407C15.2939 25.949 17.591 22.6251 17.9429 22.0921L18.0544 22.1366L18.1658 22.1811L18.3886 22.2702Z" fill="#6C64F8" stroke="#9867FF" stroke-width="2"/>
<rect x="21.7852" y="17.9589" width="5.10403" height="1.84325" transform="rotate(-59.2383 21.7852 17.9589)" fill="white"/>
<rect x="16.6904" y="22.2762" width="12.0677" height="2.48089" rx="1" transform="rotate(-59.2383 16.6904 22.2762)" fill="url(#paint1_linear_0_1)"/>
<defs>
<linearGradient id="paint0_linear_0_1" x1="46" y1="18" x2="129" y2="18" gradientUnits="userSpaceOnUse">
<stop stop-color="#9867FF"/>
<stop offset="1" stop-color="#6C64F8"/>
</linearGradient>
<linearGradient id="paint1_linear_0_1" x1="16.6904" y1="23.5167" x2="28.7581" y2="23.5167" gradientUnits="userSpaceOnUse">
<stop stop-color="#9867FF"/>
<stop offset="1" stop-color="#6C64F8"/>
</linearGradient>
</defs>
</svg>
