<svg width="24" height="24" viewBox="0 0 20 20" fill="none" xmlns="http://www.w3.org/2000/svg">
<path d="M10.0003 10.8332C10.4606 10.8332 10.8337 10.4601 10.8337 9.99984C10.8337 9.5396 10.4606 9.1665 10.0003 9.1665C9.54009 9.1665 9.16699 9.5396 9.16699 9.99984C9.16699 10.4601 9.54009 10.8332 10.0003 10.8332Z" stroke="#BFBFBF" stroke-width="2" stroke-linecap="round" stroke-linejoin="round"/>
<path d="M10.0003 5.00016C10.4606 5.00016 10.8337 4.62707 10.8337 4.16683C10.8337 3.70659 10.4606 3.3335 10.0003 3.3335C9.54009 3.3335 9.16699 3.70659 9.16699 4.16683C9.16699 4.62707 9.54009 5.00016 10.0003 5.00016Z" stroke="#BFBFBF" stroke-width="2" stroke-linecap="round" stroke-linejoin="round"/>
<path d="M10.0003 16.6667C10.4606 16.6667 10.8337 16.2936 10.8337 15.8333C10.8337 15.3731 10.4606 15 10.0003 15C9.54009 15 9.16699 15.3731 9.16699 15.8333C9.16699 16.2936 9.54009 16.6667 10.0003 16.6667Z" stroke="#BFBFBF" stroke-width="2" stroke-linecap="round" stroke-linejoin="round"/>
</svg>
