<svg width="30" height="30" viewBox="0 0 30 30" fill="none" xmlns="http://www.w3.org/2000/svg">
<path fill-rule="evenodd" clip-rule="evenodd" d="M15 27C21.6274 27 27 21.6274 27 15C27 8.37258 21.6274 3 15 3C8.37258 3 3 8.37258 3 15C3 21.6274 8.37258 27 15 27ZM13.0607 10.9393C12.4749 10.3536 11.5251 10.3536 10.9393 10.9393C10.3536 11.5251 10.3536 12.4749 10.9393 13.0607L12.8787 15L10.9393 16.9393C10.3536 17.5251 10.3536 18.4749 10.9393 19.0607C11.5251 19.6464 12.4749 19.6464 13.0607 19.0607L15 17.1213L16.9393 19.0607C17.5251 19.6464 18.4749 19.6464 19.0607 19.0607C19.6464 18.4749 19.6464 17.5251 19.0607 16.9393L17.1213 15L19.0607 13.0607C19.6464 12.4749 19.6464 11.5251 19.0607 10.9393C18.4749 10.3536 17.5251 10.3536 16.9393 10.9393L15 12.8787L13.0607 10.9393Z" fill="url(#paint0_linear_195_1247)"/>
<defs>
<linearGradient id="paint0_linear_195_1247" x1="3" y1="15" x2="27" y2="15" gradientUnits="userSpaceOnUse">
<stop stop-color="#9867FF"/>
<stop offset="1" stop-color="#6C64F8"/>
</linearGradient>
</defs>
</svg>
