<svg width="24" height="24" viewBox="0 0 24 24" fill="none" xmlns="http://www.w3.org/2000/svg">
<path fill-rule="evenodd" clip-rule="evenodd" d="M12 24C18.6274 24 24 18.6274 24 12C24 5.37258 18.6274 0 12 0C5.37258 0 0 5.37258 0 12C0 18.6274 5.37258 24 12 24ZM10.0607 7.93934C9.47487 7.35355 8.52513 7.35355 7.93934 7.93934C7.35355 8.52513 7.35355 9.47487 7.93934 10.0607L9.87868 12L7.93934 13.9393C7.35355 14.5251 7.35355 15.4749 7.93934 16.0607C8.52513 16.6464 9.47487 16.6464 10.0607 16.0607L12 14.1213L13.9393 16.0607C14.5251 16.6464 15.4749 16.6464 16.0607 16.0607C16.6464 15.4749 16.6464 14.5251 16.0607 13.9393L14.1213 12L16.0607 10.0607C16.6464 9.47487 16.6464 8.52513 16.0607 7.93934C15.4749 7.35355 14.5251 7.35355 13.9393 7.93934L12 9.87868L10.0607 7.93934Z" fill="url(#paint0_linear_645_86)"/>
<defs>
<linearGradient id="paint0_linear_645_86" x1="7.12462e-08" y1="12" x2="24" y2="12" gradientUnits="userSpaceOnUse">
<stop stop-color="#9867FF"/>
<stop offset="1" stop-color="#6C64F8"/>
</linearGradient>
</defs>
</svg>
