<svg width="55" height="55" viewBox="0 0 55 55" fill="none" xmlns="http://www.w3.org/2000/svg">
<path fill-rule="evenodd" clip-rule="evenodd" d="M27.5738 39.927C34.3963 39.927 39.927 34.3963 39.927 27.5739C39.927 20.7514 34.3963 15.2207 27.5738 15.2207C20.7514 15.2207 15.2207 20.7514 15.2207 27.5739C15.2207 34.3963 20.7514 39.927 27.5738 39.927ZM33.2981 25.5774C33.9012 24.9744 33.9012 23.9967 33.2981 23.3937C32.6951 22.7907 31.7174 22.7907 31.1144 23.3937L26.0297 28.4784L24.0333 26.482C23.4303 25.879 22.4526 25.879 21.8495 26.482C21.2465 27.085 21.2465 28.0627 21.8495 28.6657L24.9378 31.754C25.5408 32.3571 26.5185 32.3571 27.1216 31.754L33.2981 25.5774Z" fill="url(#paint0_linear_195_2197)"/>
<path d="M46.4932 18.5712C48.6595 23.179 49.0767 28.4172 47.6672 33.3098C46.2578 38.2025 43.1177 42.4159 38.832 45.165C34.5464 47.9142 29.4075 49.0116 24.3727 48.2528C19.338 47.494 14.7508 44.9307 11.4658 41.0406" stroke="#C7C4F9"/>
<path d="M8.50678 36.4288C6.34054 31.821 5.92329 26.5828 7.33277 21.6902C8.74224 16.7975 11.8823 12.5841 16.168 9.83497C20.4536 7.08581 25.5925 5.98841 30.6273 6.74721C35.662 7.50601 40.2492 10.0693 43.5342 13.9594" stroke="#C7C4F9"/>
<path d="M10.2458 39.9171L12.7026 39.9522L10.0238 42.3641L10.2458 39.9171Z" fill="#C7C4F9"/>
<path d="M44.7542 15.0824L42.2974 15.0473L44.9762 12.6354L44.7542 15.0824Z" fill="#C7C4F9"/>
<defs>
<linearGradient id="paint0_linear_195_2197" x1="27.5738" y1="15.2207" x2="27.5738" y2="39.927" gradientUnits="userSpaceOnUse">
<stop stop-color="#9867FF"/>
<stop offset="1" stop-color="#6C64F8"/>
</linearGradient>
</defs>
</svg>
